<?xml version="1.0"?>
<svg xmlns="http://www.w3.org/2000/svg" version="1.2" baseProfile="tiny" width="800" height="672" viewBox="0 0 800 672" stroke-linecap="round" stroke-linejoin="round">
<g id="mun_madrid">
<path d="M 644.51 467.45 652.21 445.58 663.09 438.79 676.02 436.65 694.84 451.92 686.44 456.81 680.8 465.14 677.71 473.47 658.89 474.52 652.1 472.46 644.51 467.45 Z" id="28165"/>
<path d="M 653.38 389.11 654.52 387.89 659.79 389.86 670.95 388.49 676.16 391.98 680.41 398.81 681.04 404.4 683.55 411.66 666.99 408.83 663.47 401.14 656.11 397.46 653.38 389.11 Z" id="28166"/>
<path d="M 486.29 191.73 493.84 185.76 500.17 187.94 506.01 187.17 511.3 190.66 516.21 191.73 515.12 197.02 507.62 199.68 499.46 201.71 496.14 201.14 486.29 191.73 Z" id="28169"/>
<path d="M 473.17 42.4 486.26 31.37 489.42 24.28 496.65 24.84 504.7 30.66 507.21 34.26 513.08 37.45 512.59 39.61 509.86 40.04 509.09 44.05 510.46 47.13 508.22 47.79 507.16 46.27 503.69 46.66 505.77 49.51 504.57 51.18 499.65 50.66 498.26 51.71 485.36 48.27 473.17 42.4 Z" id="28001"/>
<path d="M 558.88 328.97 563.98 326.51 563.98 321.73 571.16 320.17 571.7 317.9 575.19 316.68 574.02 320.17 575.11 323.81 579.67 328.91 581.66 328.59 580.51 331.84 585.56 335.22 585.45 341.03 584.11 341.33 585.12 343.43 588.15 344.01 589.68 342.76 597.24 342.12 599.2 344.52 589.92 347.8 582.15 352.74 575.9 351.99 561.03 333.58 558.88 328.97 Z" id="28002"/>
<path d="M 356.82 109.26 358.59 105.75 366.15 101.94 379.46 114.57 386.31 122.77 387.23 126.46 392.96 130.18 393.29 133.46 403.87 144.17 403.82 146.16 400.11 158.82 398.23 160.64 395.72 161.77 391.98 154.96 388.16 151.47 390.29 147.32 388.95 142.07 386.71 140.7 385.9 135.11 371.22 122.62 365.35 121.08 356.82 109.26 Z" id="28003"/>
<path d="M 291.23 480.43 301.98 476.53 316.63 478.82 318.35 479.87 320.42 487.3 323.67 490.52 331.85 493.19 331.91 495.57 330.46 495.03 328.44 499.36 308.5 501.09 303.05 496.79 299.2 495.68 290.14 487.43 291.23 480.43 Z" id="28004"/>
<path d="M 592.87 377.24 601.27 369.3 599.75 366.66 603.95 363.75 601.19 354.5 602.5 353.49 602.42 343.45 602.56 333.34 598.3 333.4 597.32 329.27 598.68 329.46 600.15 326.4 609.27 325.42 607.96 329.98 611.29 330.36 611.48 333.51 614.75 333.75 614.53 335.8 618.24 335.22 621.16 336.64 629.29 334.07 634.96 334.2 636.87 337.05 642.49 335.29 643.67 332.63 648.99 333.13 657.72 338.05 667.29 331.86 669.58 332.14 671.44 334.37 675.15 332.57 677.88 334.35 676.1 335.91 678.09 335.97 677.55 340.36 673.48 340.3 669.15 343.41 666.75 342.08 665.57 343.21 666.17 349.75 670.46 352.1 672.69 354.54 676.68 354.48 676.08 356.08 669.26 359.81 664.89 358.23 658.62 363.84 657.5 366.13 654.85 366.86 652.42 371.74 648.11 371.78 646.15 374.12 643.75 373.09 643.15 374.97 639.47 376 634.39 372.38 631.25 373.41 628.74 372.64 625.47 374.59 622.88 370.22 612.98 373.52 610.19 372.02 607.22 372.92 605.07 372.08 603.51 373.65 599.64 373.09 592.87 377.24 Z" id="28005"/>
<path d="M 474.2 302.71 484.65 320.34 491.61 320.85 499.27 328.11 537.49 332.31 535.34 334.18 538.97 337.09 536.1 340.39 536.89 343.26 527.59 342.68 515.67 348.55 511.49 348.46 505.08 343.43 495.56 345.16 489.51 345.05 483.59 342.31 482.3 343.08 478.49 336.38 472.59 335.05 476.71 331.2 470.14 323.04 466.21 312.37 459.83 308.22 474.2 302.71 Z" id="28006"/>
<path d="M 371.27 425.97 371.49 423.18 367.02 417.19 367.65 415.45 373.67 414.98 373.05 413.12 384.7 406.07 388.62 399.9 392.25 400.89 390.53 403.52 402.89 420.42 404.77 419.01 414.79 423.05 407.42 424.7 409.22 425.69 405.7 429.07 407.91 432.11 398.88 439.22 385.38 441.09 383.33 441.17 379.49 435.62 377.96 436.29 376.4 434.96 377.41 430.96 373.35 429.11 373.02 425.71 371.27 425.97 Z" id="28007"/>
<path d="M 149.51 441.94 154.23 438.39 158.87 439.05 163.89 436.78 172.67 440.79 180.18 439.91 182.71 435.92 192.32 433.18 192.4 427.68 205.52 433.95 208.57 438.62 215.07 444.13 216.81 449.16 216.4 458.71 216.19 460.06 213.59 459.98 203.99 455.14 200.75 456.83 197.23 460.38 197.53 470.06 192.02 469.72 190.02 467.94 185.5 469.51 182.74 465.95 170.25 460.4 161.9 454.49 157.29 449.7 156.82 447.3 149.51 441.94 Z" id="28008"/>
<path d="M 516.24 268.21 518.81 267.59 520.93 268.98 520.91 273.2 529.83 274.06 530.43 270.65 534.3 270.44 533.65 273.52 536.07 277.49 534.41 278.24 532.85 276.57 531.68 279.63 533.37 284.49 534.76 284.02 534.08 290.46 542.65 290.38 546.25 288.32 552.47 289.56 563.98 286.46 563.22 283.53 570.15 283.78 572.66 283.31 571.57 286.25 575.96 289.54 577.89 294.4 589.35 293.08 583 299.27 571.84 304.56 567.55 304.28 554.21 306.89 547.69 304.88 544.53 306.14 539.67 303.66 534.6 304.34 533.35 301.22 531.63 301.13 531.41 297.7 526.85 297.38 524.78 292.95 526.88 291.3 526.83 286.95 523.28 286.65 523.5 284.57 521.04 282.58 518.64 279.35 517.28 271.19 516.24 268.21 Z" id="28009"/>
<path d="M 280.24 264.19 296.96 253.8 303.16 252.86 306.29 254.46 305.86 262.13 304.68 263.78 300.32 264.27 298.08 269.73 292.49 273.25 294.62 276.61 290.2 279.76 288.01 275.26 279.26 267.55 280.24 264.19 Z" id="28010"/>
<path d="M 713.64 447.02 718.69 444.43 722.18 437.49 722.56 434.17 719.75 430.74 723.92 426.33 734.05 422.35 734.26 414.98 742.75 412.62 747.88 413.89 748.23 415.54 746.49 418.36 748.78 422.33 751.7 423.37 752.87 427.34 750.09 427.68 745.34 431.56 747.58 433.78 746.73 437.23 732.3 446.72 731.7 451.52 718.11 450.49 713.64 447.02 Z" id="28011"/>
<path d="M 658.62 363.84 664.89 358.23 669.26 359.81 676.08 356.08 676.68 354.48 672.69 354.54 670.46 352.1 678.15 352.25 683.8 356.38 691.63 357.56 696.62 371.87 698.77 374.33 703.85 375.79 703.71 378.27 692.28 380.05 690.53 381.46 686.88 380.93 686.61 378.46 683.82 375.85 676.29 374.55 658.62 363.84 Z" id="28012"/>
<path d="M 368.96 657.33 373.1 654.01 368.87 648.18 377.36 645.72 380.77 642.29 387.72 640.97 388.95 645.66 391.63 646.41 395.64 638.18 399.13 638.46 403.38 634.71 407.39 635.46 408.7 639 411.68 638.1 417.3 639.42 417.65 637.39 415.33 634.52 425.86 630.56 427.42 627.6 430.36 632.42 423.65 635.2 426.27 638.25 433.77 635.18 433.75 632.63 429.87 626.92 438.08 630.66 445.67 629.42 448.29 626 445.56 625.14 444.33 626.64 440.78 626.98 436.66 620.38 440.1 620.17 442.86 623.45 444.17 622.98 442.45 618.44 446.4 616.29 450.2 618.76 450.99 617.43 448.04 612.1 460.92 600.3 467.55 599.29 467.71 601.35 470.9 602.33 477.53 596.08 478.21 592.31 481.9 591.19 486.07 594.06 488.25 588.86 493.71 589.2 492.4 584.3 501.51 581.94 502.76 580.46 500.28 578.92 504.29 574.66 498.56 571.49 497.83 569.69 500.77 568.17 507.57 567.83 510.78 562.52 510.05 560.93 506.2 562.39 504.4 560.61 508.98 553.63 512.75 553.59 514.14 552.39 512.83 547.18 516.08 546.43 517.58 544.06 521.45 543.41 524.7 542.54 524.02 544.87 526.01 547.01 535.15 545.13 533.92 547.29 525.71 551.38 522.92 558.88 520.63 562.22 517.52 574.81 516.08 575.56 518.48 580.21 532.66 576.01 546.69 574.96 547.56 583.4 541.2 584.17 546.44 584.96 550.1 583.59 551.43 585.73 555.28 583.25 555.8 586.12 558.06 585.52 557.92 587.17 556.1 587.47 557.24 587.96 553.72 596.98 554.92 599.59 549.25 601.15 538.5 601.15 518.18 603.7 515.8 609.74 507.54 611.52 501.21 615.29 497.69 614.47 493.08 616.72 497.01 627.02 495.24 626.85 494.94 628.46 480.2 628.67 472.37 631.14 461.95 638.48 454.86 634.3 444.68 639.68 437.73 641.59 435.33 647.52 431.07 651.87 419.48 657.24 413.72 663.39 405.02 669.51 406.08 670.91 400.6 670.37 390.32 662.96 374.17 661.03 368.96 657.33 Z" id="28013"/>
<path d="M 629.21 540.74 649.1 531.78 659.19 517.54 667.84 531.87 671.6 541.98 664.67 542.04 644.51 559.39 646.94 553.07 642.55 549.17 638.02 548.4 632.92 545.34 629.21 540.74 Z" id="28019"/>
<path d="M 532.61 110.63 535.56 109.5 531.68 104.33 532.69 101.89 534.71 102.09 539.16 99.22 552.28 94.63 552.41 93.24 556.48 93.11 557.24 90.91 559.59 91.72 567.45 90.84 568.92 99.02 565.35 100.52 560.27 106.2 551.57 106.2 544.42 108.87 542.4 111.36 542.98 113.44 536.65 112.75 532.61 110.63 Z" id="28020"/>
<path d="M 513.29 145.95 511.63 142.93 529.36 137.79 541.88 137.64 545.1 140.83 546.52 138.6 549.36 140.31 551.79 139.31 554.43 139.95 555.96 137.44 558.36 142.67 552.31 152.5 546.17 159.63 544.34 159.33 540.87 162.91 536.59 161.69 528.14 165.65 515.89 151.47 513.29 145.95 Z" id="28021"/>
<path d="M 380.39 516.84 404.26 516.77 404.86 517.95 402.97 522.23 399.05 521.1 390.51 526.26 380.79 522.13 380.39 516.84 Z" id="28036"/>
<path d="M 1 497.07 3.07 495.7 8.01 496.53 10.49 494.11 11.18 488.12 7.25 485.23 6.02 476.23 13.03 471.45 33.52 469.1 39.71 463.98 45.28 464.99 50.49 464.82 54.39 462.63 59.05 463.96 69.15 468.07 76.35 475.01 76.59 483.43 75.07 486.87 56.79 489.59 37.23 496.02 33.49 498.35 32.04 504.8 23.86 506.38 3.16 502.62 4.36 499.42 1 497.07 Z" id="28037"/>
<path d="M 676.16 391.98 682.46 388.64 684.4 382.34 686.88 380.93 690.53 381.46 692.28 380.05 703.71 378.27 716.29 383.48 714.35 387.74 714.16 396.56 712 399.88 692.33 405.11 684.83 402.34 681.04 404.4 680.41 398.81 676.16 391.98 Z" id="28048"/>
<path d="M 554.9 456.74 560.54 453.08 557.32 451.24 562.51 448.95 557.68 446.85 559.26 444.06 568.13 445.48 572.85 441.06 576.45 443.55 580.59 443.55 580.1 433.83 589.57 431.13 598.95 426.54 603.81 427.74 601.03 433.5 602.04 444.81 609.48 446.74 617.29 452.2 619.03 451.58 621.84 453.53 628.2 454.9 629.75 458.03 625.74 463.72 633.38 471.88 629.24 473.81 623.59 479.83 619.77 480.75 613.58 476.14 605.39 477.45 595.82 475.59 586.62 475.55 580.87 477.11 574.32 476.32 570.5 470.47 563.22 465.91 554.9 456.74 Z" id="28014"/>
<path d="M 333.41 473.68 330.95 473.34 330.49 467.86 333.52 463.36 334.09 458.09 347.49 459.03 344.02 456.12 334.39 457.56 334.25 455.22 346.18 452.31 348.06 454.45 347.84 457.38 353.35 451.75 357.31 451.39 360.12 452.63 362.98 458.24 365.93 457.75 368.11 459.89 362.71 462.57 363.99 464.07 362.68 466.34 353.81 474.71 349.75 476.62 347.89 474.24 340.01 476.51 335.51 473.25 333.41 473.68 Z" id="28015"/>
<path d="M 563.9 127.19 566.93 124.62 567.42 117.16 573.45 107.16 576.23 106.58 574.73 105.68 576.28 105.13 594.34 106.6 596.99 105.06 600.15 106.05 606.24 104.83 598.71 115.88 598.19 122.5 592.19 127.96 590.74 133.27 587.03 132.09 584.58 132.93 585.48 130.85 582.2 130.29 581.11 133.25 577.29 135.17 576.31 133.29 574.67 133.61 574.7 135.62 572.25 134.19 566.79 134.87 564.39 132.71 563.9 127.19 Z" id="28016"/>
<path d="M 326.64 506.53 328.44 499.36 330.46 495.03 331.91 495.57 331.85 493.19 329.04 479.21 336.79 480.06 339.03 481.35 342.44 480.6 343.42 482.12 348.44 483.06 353.95 487.88 356.49 491.78 354.39 493.73 359.22 500.32 358.07 507.58 350.7 504.97 342.52 505.59 340.12 503.99 335.89 504.37 330.68 503.54 329.51 507.88 326.64 506.53 Z" id="28017"/>
<path d="M 366.66 269.9 368.98 269.11 369.77 266.95 372.31 264.61 369.86 262.82 367.43 256.93 369.75 254.48 372.97 254.16 375.91 251.81 386.39 251.49 392.66 254.68 391.49 256.71 385.02 259.15 383.99 260.78 387.48 262.28 379.57 263.84 374.36 273.01 366.66 269.9 Z M 341.1 266.99 347.32 265.45 348.09 267.59 346.04 271.47 341.7 269.78 341.1 266.99 Z M 301.25 239.09 302.5 235.12 312.92 222.6 313.33 216.04 315.68 212.14 320.21 209.51 323.29 210.67 324.41 213.43 324.76 226.86 329.32 233.11 330.03 235.72 324.71 240.95 320.78 241.29 319.31 242.66 313.58 241.42 309.95 246.95 305.09 249.58 301.25 239.09 Z M 346.04 258.79 347.76 257.5 352.21 256.28 352.64 258.6 346.04 258.79 Z M 348.19 257.18 352.97 253.89 354.14 254.76 348.19 257.18 Z" id="28018"/>
<path d="M 330.46 394.27 331.66 390.31 328.64 387.65 328.61 381.53 330.3 375.17 332.62 372.79 338.78 375.34 343.86 379.58 351.14 379.06 353.54 374.31 356.54 372.06 365.3 377.69 375.39 378.42 384.29 392.26 386.28 391.68 388.62 399.9 384.7 406.07 373.05 413.12 362.82 407.16 362.84 404.36 360.61 402.62 350.57 398.34 344.84 397.76 336.14 393.65 330.46 394.27 Z" id="28022"/>
<path d="M 387.48 262.28 383.99 260.78 385.02 259.15 391.49 256.71 387.48 262.28 Z M 341.1 266.99 340.91 263.57 347.32 263.57 346.04 258.79 352.64 258.6 354.63 258.02 354.8 256.33 352.21 256.28 347.76 257.5 348.19 257.18 354.14 254.76 355.45 255.41 356.57 253.37 360.77 255.47 369.75 254.48 367.43 256.93 369.86 262.82 372.31 264.61 369.77 266.95 357.69 260.55 354.31 260.48 352.78 261.98 353.3 269.07 346.04 271.47 348.09 267.59 347.32 265.45 341.1 266.99 Z M 320.21 209.51 322.03 208.93 328.99 211.37 345.11 221.97 352.48 224.42 359.65 237.05 360.44 242.23 353.16 246.24 349.26 251.1 343.2 255.11 343.37 256.35 332.7 251.64 328.66 248.25 329.07 243.37 334.8 238.04 336.85 236.56 338.62 231.23 335.86 230.39 329.32 233.11 324.76 226.86 324.41 213.43 323.29 210.67 320.21 209.51 Z" id="28023"/>
<path d="M 457.42 47.54 461.87 44.9 467.25 43.3 471.37 43.68 473.17 42.4 485.36 48.27 498.26 51.71 500.04 53.75 500.91 61.37 493.49 72.53 489.12 70.54 485.74 71.14 475.29 65.76 471.34 59.25 464.68 55.83 457.42 47.54 Z" id="28024"/>
<path d="M 368.49 510.65 372.26 505.49 378.23 506.28 385.38 504.33 389.58 505.01 397.35 503.34 401.17 504.14 401.86 508.42 404.34 508.63 403.79 511.65 406.3 511.89 405.16 517.99 404.86 517.95 404.26 516.77 380.39 516.84 373.54 512.27 368.49 510.65 Z" id="28050"/>
<path d="M 180.64 404.98 190.19 399.43 191.03 400.33 197.74 399.35 199.93 400.59 209.42 399.69 210.84 402.09 202.14 405.71 206.2 412.41 200.47 418.94 201.81 420.27 200.61 421.9 205.44 422.54 206.99 424.1 205.11 426.48 208.44 428.77 208.25 433.7 205.52 433.95 192.4 427.68 192.32 433.18 182.71 435.92 182.3 425.39 179.55 420.06 184.79 407.63 180.64 404.98 Z" id="28051"/>
<path d="M 522.92 558.88 525.71 551.38 533.92 547.29 535.15 545.13 536.02 539.32 538.64 536.26 546.66 532.71 542.48 530.59 541.2 528.29 542.32 524.95 540.49 522.34 532.85 521.16 542.02 517.99 543.79 515.64 537.38 514.46 534.16 511.46 535.34 509.83 541.48 507.69 546.79 508.83 552.31 507.24 560.65 499.27 566.14 497.18 568.37 496.64 577.79 499.23 585.04 499.17 590.85 501.93 589.79 504.82 603.21 505.27 605.5 507.63 608.48 511.29 614.86 515.08 625.36 539.86 616.11 541.53 610.19 547.59 601.03 548.94 597.92 548.23 596.61 549.88 590.85 548.81 590.42 547.14 585.18 545.94 582.2 541.7 573.83 538.57 570.06 537.42 560.54 537.89 553.56 539.3 539.43 557.31 533.21 558.64 525.68 557.76 522.92 558.88 Z" id="28052"/>
<path d="M 736.04 488.18 737.54 483.19 746.32 472.72 751.67 471.33 759.66 464.84 769.48 461.5 776.11 468.91 774.58 473.94 781.19 481.33 779.77 485.78 785.01 491.52 783.53 498.48 785.17 501.67 784.02 504.01 780.56 505.87 768.66 503.81 747.8 494.09 741.74 489.74 736.04 488.18 Z" id="28025"/>
<path d="M 279.48 407.57 280.1 404.7 281.82 403.95 281.03 401.51 286.16 395.98 285.18 395.32 290.2 386.71 295.87 382.77 305.99 385.3 309.89 384.05 311.23 384.87 314.42 382.49 315.87 388.04 319.8 392.58 328.96 397.44 331.55 397.25 332.37 403.65 329.48 407.01 333.11 413.99 331.42 417.29 329.64 418.3 323.42 416.84 317.72 418.13 313.82 417.19 301.05 422.73 300.02 420.27 285.42 412.77 279.48 407.57 Z" id="28026"/>
<path d="M 478.68 90.18 484.24 90.41 486.01 89.24 481.05 85.96 484.62 83.92 486.86 87.33 487.9 85.77 494.2 86.75 495.64 83.6 494.91 76.79 497.88 76.73 500.36 74.84 502.98 76.69 503.53 80.93 508.79 83.05 513.21 88.59 517.55 88.81 523.2 92.43 520.82 96.92 514.28 96.32 509.72 101.61 500.45 103.22 497.58 107.83 489.7 111.92 484.68 108.87 488.14 100.05 483.42 101.55 483.18 100.07 484.6 97.93 477.04 91.96 478.68 90.18 Z" id="28027"/>
<path d="M 413.91 167.96 416.53 166.14 416.67 163.38 421.01 160.75 422.02 157.81 425.81 157.45 428.4 155.65 433.5 157.19 440.18 153.19 447.69 154.9 451.4 152.18 462.85 150.12 463.81 150.25 468.8 155.82 470.52 161.82 471.83 162.07 470.96 167.02 475.78 174.79 471.91 175.01 459.99 179.55 459.91 192.42 452.24 195.1 448.83 193.68 442.72 189.72 436.99 188.67 436.15 186.27 427.77 180.38 422.23 178.99 416.37 172.89 413.91 167.96 Z" id="28028"/>
<path d="M 575.19 316.68 578.82 311.77 583 299.27 589.35 293.08 595.52 287.7 594.48 290.85 596.69 291.88 594.7 294.83 594.92 299.42 602.04 304.62 610.22 308.09 618.81 308.86 619.88 310.19 615.02 317.43 617.67 318.84 616.85 320.17 612.35 323.68 609.95 323.68 609.27 325.42 600.15 326.4 598.68 329.46 597.32 329.27 598.3 333.4 602.56 333.34 602.42 343.45 599.2 344.52 597.24 342.12 589.68 342.76 588.15 344.01 585.12 343.43 584.11 341.33 585.45 341.03 585.56 335.22 580.51 331.84 581.66 328.59 579.67 328.91 575.11 323.81 574.02 320.17 575.19 316.68 Z" id="28053"/>
<path d="M 220.14 316.38 230.15 311.35 228 307.34 230.18 302.2 235.45 298.52 234.79 297.66 242.38 294.13 243.96 289.76 246.99 290.29 253.18 281.79 274.29 277.31 278.71 281.71 286.62 281.13 284.41 284.1 285.86 285.56 281.69 290.38 285.59 292.56 285.83 297.83 281.19 302.74 280.51 305.69 278.85 305.99 280.24 308.22 279.07 312.22 275.25 312.61 272.25 311.39 262.56 313.87 258.17 318.22 252.61 319.63 247.86 326.57 243.03 326.51 238.61 328.84 235.01 334.48 236.92 337.45 234.6 339.4 230.59 337.58 225.22 337.43 223.31 332.68 228.08 332.16 227.83 330.49 225.27 328.31 224.62 319.03 220.14 316.38 Z" id="28054"/>
<path d="M 747.8 494.09 768.66 503.81 780.56 505.87 782.44 506.9 781.87 513.3 786.37 520.41 786.07 523.73 791.23 528.06 789.21 529.06 785.91 528.49 782.17 525.04 780.01 525.4 775.68 530.16 777.97 531.93 776.11 536.15 777.34 536 778.08 538.04 779.55 536.58 780.34 538.15 782.17 538.04 783.64 539.97 786.31 539.73 786.26 541.27 788.85 542.06 788.61 545.02 792.75 546.84 791.36 548.64 794.55 551.36 797.34 551.14 796.49 552.34 798.7 554.94 797.12 555.77 799 558.64 794.96 563.27 780.29 573.72 764.9 578.52 770.46 559.26 762.14 554.1 758.08 548.85 756.63 545.19 759.8 544.57 754.34 537.91 753.66 532.71 748.4 526.15 748.5 519.43 744.33 513.39 746.92 507.11 743.62 505.19 741.66 500.24 743.87 495.95 747.8 494.09 Z" id="28055"/>
<path d="M 191.66 376.45 189.64 371.33 191.55 369.98 190.9 365.23 195.07 349.96 201.62 349.81 210.92 344.78 225.27 343.96 229.96 345.91 224.12 352.72 223.85 356.71 220.52 360.9 219.13 366.43 214.3 367.95 212.18 370.48 211.11 375.89 213.4 377.12 214.99 382.17 198.92 372.62 196.16 372.68 191.66 376.45 Z" id="28056"/>
<path d="M 481.79 189.76 484.71 185.42 485.28 174.77 486.15 170.23 490.57 165.2 499.9 170.68 504.26 170.81 503.66 173.59 508.63 180.73 505.79 182.95 506.01 187.17 500.17 187.94 493.84 185.76 486.29 191.73 485.52 190.36 481.79 189.76 Z" id="28029"/>
<path d="M 486.59 150.59 503.01 149.42 513.29 145.95 515.89 151.47 528.14 165.65 513.38 168.35 510.51 170.23 504.26 170.81 499.9 170.68 490.57 165.2 486.59 150.59 Z" id="28030"/>
<path d="M 45.28 464.99 38.97 462.8 54.17 454.47 54.74 451.79 59.79 449.22 58.56 446.55 60.03 444.68 56.73 443.16 65.49 443.63 66.5 436.46 72.39 439.01 84.94 436.87 105.02 444.17 105.97 446.01 101.34 453.14 103.55 454.04 103.27 459.48 96.07 461.77 90.62 467.51 80.6 473.9 80.41 475.95 76.35 475.01 69.15 468.07 59.05 463.96 54.39 462.63 50.49 464.82 45.28 464.99 Z" id="28031"/>
<path d="M 609.27 325.42 609.95 323.68 612.35 323.68 616.85 320.17 617.67 318.84 615.02 317.43 619.88 310.19 622.12 311.58 623.15 307.88 627.19 304.96 625.12 300.74 626.15 296.85 625.03 294.75 626.86 292.61 630.14 293.72 632.18 292.76 649.78 298.54 650.46 301.17 648.58 300.96 647.81 304.6 644.62 306.42 648.14 307.85 645.44 309.67 645.85 311 644.08 310.68 641.81 313.64 640.01 312.99 636.63 316.89 643.67 332.63 642.49 335.29 636.87 337.05 634.96 334.2 629.29 334.07 621.16 336.64 618.24 335.22 614.53 335.8 614.75 333.75 611.48 333.51 611.29 330.36 607.96 329.98 609.27 325.42 Z" id="28032"/>
<path d="M 595.52 287.7 597.4 283.33 600.54 282.26 606.95 272.9 626.86 280.96 632.35 283.42 629.51 287.57 631.36 288.54 626.13 291.69 626.86 292.61 625.03 294.75 626.15 296.85 625.12 300.74 627.19 304.96 623.15 307.88 622.12 311.58 619.88 310.19 618.81 308.86 610.22 308.09 602.04 304.62 594.92 299.42 594.7 294.83 596.69 291.88 594.48 290.85 595.52 287.7 Z" id="28057"/>
<path d="M 385.38 441.09 398.88 439.22 401.99 451.75 403.46 452.8 422.32 457.66 428.4 456.78 432 465.56 440.13 468.97 439.09 478.03 436.15 477.54 431.4 479.68 430.14 477.22 427.47 476.89 421.47 479.83 407.88 479.76 402.81 465.84 387.81 465.8 386.91 461.17 385.76 456.46 382.57 453.55 386.2 450.57 385.38 441.09 Z" id="28058"/>
<path d="M 603.81 427.74 612.68 426.5 618.32 423.03 629.81 420.68 632.05 422.24 640.53 421.21 656.52 431.83 663.09 438.79 652.21 445.58 644.51 467.45 633.38 471.88 625.74 463.72 629.75 458.03 628.2 454.9 621.84 453.53 619.03 451.58 617.29 452.2 609.48 446.74 602.04 444.81 601.03 433.5 603.81 427.74 Z" id="28033"/>
<path d="M 398.23 160.64 400.11 158.82 403.82 146.16 406.52 144.51 409.14 139.33 414.32 136.63 416.15 133.89 415.17 133.07 421.77 127.08 426.73 126.2 441.41 118.21 442.69 120.95 447.44 121.7 447.79 125.81 451.59 131.21 451.01 137.04 452.6 141.94 460.64 146.1 462.85 150.12 451.4 152.18 447.69 154.9 440.18 153.19 433.5 157.19 428.4 155.65 425.81 157.45 422.02 157.81 421.01 160.75 416.67 163.38 416.53 166.14 413.91 167.96 410.37 167.88 409.3 166.68 403.36 163.02 399.67 162.87 398.23 160.64 Z" id="28034"/>
<path d="M 677.71 473.47 680.8 465.14 686.44 456.81 694.84 451.92 718.66 473.23 723.6 475.95 725.02 480.92 713.2 486.23 711.54 492.31 707.64 495.63 704.53 496.02 702.4 499.02 689.2 499.53 685.3 498.31 681.15 488.37 680.63 481.16 678.04 479.36 677.71 473.47 Z" id="28035"/>
<path d="M 694.84 451.92 708.57 446.12 713.64 447.02 718.11 450.49 731.7 451.52 732.3 457.98 729.05 464.73 730.39 469.59 723.6 475.95 718.66 473.23 694.84 451.92 Z" id="28102"/>
<path d="M 539.24 128.92 541.07 124.96 542.98 123.61 543.71 125.6 546.96 121.81 554.73 122.86 563.9 127.19 564.39 132.71 566.79 134.87 570.36 137.81 562.64 137.59 556.48 135.54 555.96 137.44 554.43 139.95 551.79 139.31 549.36 140.31 546.52 138.6 545.1 140.83 541.88 137.64 541.01 134.4 544.61 133.37 544.64 130.59 543.33 129.05 539.24 128.92 Z" id="28039"/>
<path d="M 477.78 535.68 481.7 535.32 485.17 529.17 493.22 524.2 494.44 521.68 492.04 521.76 488.63 519.28 489.48 518.38 493.87 517.44 504.32 522.7 508.68 526.99 511.33 526.22 517.39 507.95 534.16 511.46 537.38 514.46 543.79 515.64 542.02 517.99 532.85 521.16 530.78 532.23 525.87 533.99 526.42 537.14 521.92 540.01 521.45 543.41 517.58 544.06 516.08 546.43 512.83 547.18 514.14 552.39 512.75 553.59 508.98 553.63 487.79 545.58 484.05 545.41 478.54 539.88 477.78 535.68 Z" id="28040"/>
<path d="M 542.24 312.69 544.89 311.22 544.53 306.14 547.69 304.88 554.21 306.89 567.55 304.28 571.84 304.56 583 299.27 578.82 311.77 575.19 316.68 571.7 317.9 571.16 320.17 563.98 321.73 563.98 326.51 558.88 328.97 549.96 320.73 538.91 315.35 541.15 314.9 542.24 312.69 Z" id="28041"/>
<path d="M 171.47 398.7 179 390.22 180.39 384.05 185.2 379.49 189.34 380.88 191.66 376.45 196.16 372.68 198.92 372.62 214.99 382.17 219.19 386.52 217.96 388.42 221.12 390.07 219.76 393.09 222.68 394.61 221.97 398.7 220.5 398.92 218.07 403.99 227.21 417.96 226.96 419.91 224.64 421.13 224.62 424.49 209.34 426.93 208.44 428.77 205.11 426.48 206.99 424.1 205.44 422.54 200.61 421.9 201.81 420.27 200.47 418.94 206.2 412.41 202.14 405.71 210.84 402.09 209.42 399.69 199.93 400.59 197.74 399.35 191.03 400.33 190.19 399.43 180.64 404.98 174.97 403.65 171.47 398.7 Z" id="28042"/>
<path d="M 522.92 558.88 525.68 557.76 533.21 558.64 539.43 557.31 563.74 566.24 571.54 565.67 584.52 558.53 587.28 551.19 588.89 548.83 590.85 548.81 596.61 549.88 597.92 548.23 601.03 548.94 610.19 547.59 616.11 541.53 625.36 539.86 629.21 540.74 632.92 545.34 638.02 548.4 642.55 549.17 646.94 553.07 644.51 559.39 643.75 563.2 646.29 568.73 637.47 571.28 629.21 571.53 628.47 576.03 630.74 579.44 630.19 583.83 625.28 583.53 621.9 585.37 620.34 592.09 616.36 592.69 612.51 591.02 612.35 588.77 604.57 586.1 601.68 590.57 593.5 591.15 592.27 584.6 588.02 584.47 588.75 586.2 580.92 589.35 579.23 588.41 579.61 586.57 574.13 586.55 571.37 589.05 570.17 585.73 565.48 587.08 562.04 585.11 561.47 587.4 559.43 586.59 559.02 588.3 557.24 587.96 556.1 587.47 557.92 587.17 558.06 585.52 555.8 586.12 555.28 583.25 551.43 585.73 550.1 583.59 546.44 584.96 541.2 584.17 547.56 583.4 546.69 574.96 532.66 576.01 518.48 580.21 516.08 575.56 517.52 574.81 520.63 562.22 522.92 558.88 Z" id="28043"/>
<path d="M 279.07 312.22 280.24 308.22 278.85 305.99 280.51 305.69 287.33 305.69 290.14 308.24 290.44 310.62 301.05 317.04 300.1 318.86 303.97 323.04 303.35 325.31 306.21 330.96 309.7 333.49 308.75 336.06 311.86 340.47 306.07 348.33 303.21 356.68 300.43 355.78 300.78 354.2 296.99 353.71 293.8 351.31 294.59 347.09 291.59 340.39 289.87 339.59 289.02 334.84 285.04 333.38 283.62 330.56 275.85 329.93 279.07 312.22 Z" id="28044"/>
<path d="M 374.36 273.01 379.57 263.84 387.48 262.28 391.49 256.71 392.66 254.68 400.63 242.64 405.27 238.94 408.1 238.74 414.05 239.64 417.35 242.21 423.35 242.13 425.34 238.14 434.43 231.98 443.1 228.42 455.24 229.26 457.02 231.5 461.22 230.93 463.45 229.17 473.33 229.75 472.65 232.43 474.34 235.38 471.01 239.81 471.67 241.81 473.27 243.2 479.22 244.16 484.68 247.61 489.7 246.99 490.95 249.49 490.6 251.76 486.51 255.32 487.16 257.85 491.72 259.82 492.4 261.68 486.26 271.28 487.08 273.74 492.62 276.48 496.11 276.44 507.54 270.29 517.28 271.19 518.64 279.35 521.04 282.58 511.08 283.83 510.57 280.83 508.68 280.72 499.46 288.13 493.33 277.19 489.7 276.97 485.8 274.62 483.72 274.27 480.89 276.07 477.39 281.41 473.06 278.99 468.23 280.78 465.5 278.54 460.62 278.11 456.22 274.51 451.37 273.16 450.14 276.71 445.64 278.02 445.42 280.91 441.63 280.61 438.68 282.11 440.35 290.98 438 292.18 426.16 290.01 423.87 291.32 422.72 288.45 416.26 287.08 417.54 285.52 411.13 289.52 403.76 290.61 402.89 291.96 401.69 292.63 405.24 296.95 400.85 299.29 388.68 301.41 386.2 300.77 384.78 290.49 381.7 290.57 379.79 280.7 374.36 273.01 Z" id="28045"/>
<path d="M 536.89 343.26 536.1 340.39 538.97 337.09 535.34 334.18 537.49 332.31 540.36 329.74 538.97 327.09 535.2 327.3 535.5 325.22 531.08 321.2 530.89 319.06 533.26 317.88 534.82 314.41 531.38 311.54 536.86 309.74 542.24 312.69 541.15 314.9 538.91 315.35 549.96 320.73 558.88 328.97 561.03 333.58 575.9 351.99 577.57 355.48 565.51 363.92 558.63 365.53 549.14 364.18 547.39 363.67 545.92 356.26 543.82 355.14 543.41 352.27 537.85 349.68 536.4 347.54 536.89 343.26 Z" id="28104"/>
<path d="M 404.39 490.67 407.67 486.08 410.37 485.7 407.88 479.76 421.47 479.83 427.47 476.89 430.14 477.22 431.4 479.68 436.15 477.54 439.09 478.03 442.01 478.29 440.37 497.69 443.18 500.26 441.38 500.2 440.16 503.41 437.18 505.57 431.18 500.41 429.74 502.25 426.57 502.47 418.91 501.09 418.41 499.42 412.82 496.98 413.45 494.39 408.51 494.07 406.63 495.59 404.39 490.67 Z" id="28106"/>
<path d="M 552.31 152.5 558.36 142.67 555.96 137.44 556.48 135.54 562.64 137.59 570.36 137.81 566.79 134.87 572.25 134.19 574.7 135.62 574.67 133.61 576.31 133.29 577.29 135.17 581.11 133.25 582.2 130.29 585.48 130.85 584.58 132.93 587.03 132.09 590.74 133.27 593.88 134.75 594.45 136.5 591.13 137.21 586.79 135.67 585.83 136.97 587.28 139.63 585.59 140.19 586.84 141.3 589.52 140.4 592.08 142.78 593.66 142.01 596.77 144.55 594.1 146.67 596.28 152.97 592.33 152.33 579.61 158.73 583.13 162.46 580.76 165.16 576.45 163.44 572.14 165.71 565.86 165.24 561.12 168.11 557.62 164.9 557.38 161.34 554.98 159.74 552.31 152.5 Z" id="28107"/>
<path d="M 472.65 232.43 473.33 229.75 475.89 226.13 493.87 214.44 493.22 213.19 496.3 211.07 498.05 207.09 506.15 205.1 508.49 202.94 510.65 204.65 516.19 218.14 517.58 229.56 510.24 233.82 509.04 237.07 502.79 240.76 504.02 236.3 502.19 234.89 481.19 230.97 472.65 232.43 Z" id="28108"/>
<path d="M 144.49 418.47 134.92 430.74 128.15 429.39 123.05 425.2 122.32 420.98 128.67 413.95 134.92 417.14 144.49 418.47 Z" id="28109"/>
<path d="M 271.62 244.46 274.4 238.81 277.43 236.94 282.64 234.82 289.02 235.21 301.25 239.09 305.09 249.58 306.29 254.46 303.16 252.86 296.96 253.8 280.24 264.19 275.19 262.86 276.31 261 271.62 244.46 Z" id="28046"/>
<path d="M 288.29 281.28 290.2 279.76 294.62 276.61 292.49 273.25 298.08 269.73 300.32 264.27 304.68 263.78 305.86 262.13 306.29 254.46 307.33 262 321.19 266.46 330.35 266.99 331.77 273.63 325.72 279.71 317.42 282.71 314.15 286.42 300.7 288.41 292.46 286.33 289.9 283.65 290.52 281.02 288.29 281.28 Z" id="28047"/>
<path d="M 548.95 390.97 549.44 393.78 546.88 393.93 544.45 396 531.71 394.4 527.15 395.32 523.69 392.39 525.9 388.1 523.88 384.14 525.98 383.63 525.52 382.23 533.73 381.55 548.95 376.94 551.38 384.05 545.38 385.87 545.95 389.22 548.95 390.97 Z" id="28049"/>
<path d="M 534.3 270.44 537.79 269.82 535.58 265.02 539.97 265.3 541.04 263.93 544.2 264.89 552.06 260.07 556.48 259.35 569.96 260.01 574.27 261.34 575.11 263.29 571.57 266.67 570.15 283.78 563.22 283.53 563.98 286.46 552.47 289.56 546.25 288.32 542.65 290.38 534.08 290.46 534.76 284.02 533.37 284.49 531.68 279.63 532.85 276.57 534.41 278.24 536.07 277.49 533.65 273.52 534.3 270.44 Z" id="28059"/>
<path d="M 721.58 565.88 719.78 550.27 723.32 528.96 730.94 528.57 732.63 527.42 736.47 529.45 743.73 529.28 748.4 526.15 753.66 532.71 754.34 537.91 759.8 544.57 756.63 545.19 758.08 548.85 762.14 554.1 770.46 559.26 764.9 578.52 748.48 576.1 742.2 576.67 741.38 566.86 738.82 566.12 739.67 562.99 733.47 562.43 732.03 564.49 734.59 564.89 733.72 565.97 730.75 565.88 729.57 567.87 728.07 567.49 724.72 565.17 721.58 565.88 Z" id="28060"/>
<path d="M 280.51 305.69 281.19 302.74 285.83 297.83 285.59 292.56 281.69 290.38 285.86 285.56 284.41 284.1 286.62 281.13 288.29 281.28 290.52 281.02 289.9 283.65 292.46 286.33 300.7 288.41 314.15 286.42 317.42 282.71 325.72 279.71 325.2 296.01 328.36 298.22 329.32 299.25 324.95 308.99 325.77 315.54 328.23 319.25 329.59 317.77 331.14 318.11 332.4 322.33 330.05 328.41 335.37 333.34 334.04 341.22 336.52 343.11 335.16 344.75 329.73 343.9 321.35 339.27 311.86 340.47 308.75 336.06 309.7 333.49 306.21 330.96 303.35 325.31 303.97 323.04 300.1 318.86 301.05 317.04 290.44 310.62 290.14 308.24 287.33 305.69 280.51 305.69 Z" id="28061"/>
<path d="M 447.44 121.7 453.74 119.41 451.97 117.36 461.95 113.95 463.07 111.77 467.93 111.27 468.56 107.18 474.01 104.16 474.26 102.62 477.2 103.26 476.49 100.71 478.38 98.98 481.16 100.5 483.18 100.07 483.42 101.55 488.14 100.05 484.68 108.87 489.7 111.92 488.14 119.88 484.35 125.3 480.23 127.51 473.57 144.1 470.6 147.64 463.81 150.25 462.85 150.12 460.64 146.1 452.6 141.94 451.01 137.04 451.59 131.21 447.79 125.81 447.44 121.7 Z" id="28062"/>
<path d="M 440.46 100.82 446.81 98.36 452.98 98.62 455.35 96.58 471.47 91.87 472.92 91.23 473.98 92.64 478.68 90.18 477.04 91.96 484.6 97.93 483.18 100.07 481.16 100.5 478.38 98.98 476.49 100.71 477.2 103.26 474.26 102.62 474.01 104.16 468.56 107.18 467.93 111.27 463.07 111.77 461.95 113.95 451.97 117.36 453.74 119.41 447.44 121.7 442.69 120.95 441.41 118.21 442.2 113.89 440.37 109.11 441.79 107.08 438.77 102.66 440.46 100.82 Z" id="28063"/>
<path d="M 449.46 53.73 453.36 49.44 457.42 47.54 464.68 55.83 471.34 59.25 475.29 65.76 485.74 71.14 489.12 70.54 493.49 72.53 495.4 73.28 494.91 76.79 495.64 83.6 494.2 86.75 487.9 85.77 486.86 87.33 484.62 83.92 477.91 81.78 474.64 76.36 469.32 72.34 467.25 72.51 461.74 66.73 455.35 57.22 449.46 53.73 Z" id="28064"/>
<path d="M 428.4 456.78 428.84 453.19 437.24 444.75 438.96 440.61 447.63 435.45 453.14 439.09 454.12 441.47 462.69 442.14 464.33 443.27 471.53 439.97 476.28 440.68 479.6 438.58 481.65 439.24 487.24 436.29 497.04 442.89 504.62 444.47 507.13 446.27 513.89 447.45 525.43 445.97 525.73 453.29 528.63 457.98 527.86 460.49 525.68 459.98 517.22 462.22 515.1 461.45 515.67 467.24 500.96 471.35 501.18 469.53 494.42 462.33 493 458.09 488.77 457.51 480.67 460.13 474.47 465.89 463.59 469.96 454.7 471.05 445.83 468.13 440.13 468.97 432 465.56 428.4 456.78 Z" id="28065"/>
<path d="M 364.29 489.32 366.53 488.78 367.78 490.71 372.88 492.59 378.97 486.12 381.45 486.77 387.31 490.56 397.24 491.86 398.88 490.52 400.57 491.54 402.78 489.77 404.39 490.67 406.63 495.59 397.35 503.34 389.58 505.01 385.38 504.33 378.23 506.28 372.26 505.49 374.19 504.07 373.1 501.76 364.29 489.32 Z" id="28066"/>
<path d="M 448.83 193.68 452.24 195.1 459.91 192.42 481.79 189.76 485.52 190.36 486.29 191.73 496.14 201.14 499.46 201.71 507.62 199.68 508.49 202.94 506.15 205.1 498.05 207.09 496.3 211.07 493.22 213.19 493.87 214.44 475.89 226.13 473.33 229.75 463.45 229.17 461.22 230.93 457.02 231.5 455.24 229.26 437.86 209.68 441.22 208.35 439.23 204.05 441.17 201.01 448.83 193.68 Z" id="28067"/>
<path d="M 215.97 271.83 215.5 263.78 213.05 261.77 214.09 254.72 221.64 248.75 228.3 246.75 232.66 235.32 238.06 231.78 242.16 238.62 246.88 242.43 252.09 242.75 254.41 240.67 260.98 244.89 262.02 243.33 263.93 245.38 271.62 244.46 276.31 261 275.19 262.86 280.24 264.19 279.26 267.55 288.01 275.26 290.2 279.76 288.29 281.28 286.62 281.13 286.76 275.94 274.29 268.58 267.23 270.85 254.24 270.63 245.62 268.53 241.45 269.18 235.15 268 215.97 271.83 Z" id="28068"/>
<path d="M 572.98 54.37 572.71 51.78 575.96 50.41 576.42 46.6 573.42 42.48 578.25 37.92 587.99 42.18 592.24 45.55 596.77 45.33 598.98 43.79 604.08 44.39 603.95 53.38 601.27 55.08 597.18 65.42 586.92 61.57 582.42 62.59 583.43 58.57 578.22 54.46 575.22 53.26 572.98 54.37 Z" id="28069"/>
<path d="M 508.22 47.79 510.46 47.13 509.09 44.05 509.86 40.04 512.59 39.61 513.08 37.45 519.51 36.02 530.73 28.16 531.6 27.94 535.47 33.19 536.1 40.04 532.23 48.99 532.2 56.83 520.17 57.41 519.54 65.01 509.34 58.07 508.22 47.79 Z" id="28070"/>
<path d="M 531.6 27.94 535.45 26.49 539.32 22.76 540.49 17.26 547.72 18.39 551.6 20.49 553.78 25.24 552.11 30.7 552.8 42.95 544.37 56.04 543.22 61.35 537.66 68.23 538.53 63.47 534.41 62.44 532.72 61.84 532.2 56.83 532.23 48.99 536.1 40.04 535.47 33.19 531.6 27.94 Z" id="28071"/>
<path d="M 328.36 298.22 334.75 286.25 345.06 276.91 359.43 270.27 366.66 269.9 374.36 273.01 379.79 280.7 381.7 290.57 384.78 290.49 386.2 300.77 379.62 303.16 373.16 300.98 369.75 301.52 364.62 304.58 346.31 300.25 328.36 298.22 Z" id="28072"/>
<path d="M 381.45 486.77 380.49 479.36 387.81 465.8 402.81 465.84 407.88 479.76 410.37 485.7 407.67 486.08 404.39 490.67 402.78 489.77 400.57 491.54 398.88 490.52 397.24 491.86 387.31 490.56 381.45 486.77 Z" id="28073"/>
<path d="M 398.88 439.22 407.91 432.11 405.7 429.07 409.22 425.69 407.42 424.7 414.79 423.05 418.66 421.4 430.5 423.8 449.76 419.48 447.63 435.45 438.96 440.61 437.24 444.75 428.84 453.19 428.4 456.78 422.32 457.66 403.46 452.8 401.99 451.75 398.88 439.22 Z" id="28074"/>
<path d="M 583.13 407.48 591.92 404.1 591.53 402.84 596.39 398.75 596.66 394.91 600.84 393.35 597.64 384.55 603.35 388.25 611.31 387.99 617.53 397.5 632.48 414.59 642.36 418.98 640.53 421.21 632.05 422.24 629.81 420.68 618.32 423.03 612.68 426.5 603.81 427.74 598.95 426.54 589.57 431.13 590.61 423.55 586.35 411.81 583.13 407.48 Z" id="28075"/>
<path d="M 385.13 96.97 393.18 94.7 397.27 95.64 411.79 90.84 416.01 87.29 418.11 87.57 423.52 81.31 429.24 85.59 431.67 90.95 436.77 94.44 440.46 100.82 438.77 102.66 441.79 107.08 440.37 109.11 442.2 113.89 441.41 118.21 426.73 126.2 421.77 127.08 415.17 133.07 393.97 115.62 391.02 109.92 391.16 104.85 385.13 96.97 Z" id="28076"/>
<path d="M 519.54 65.01 520.17 57.41 532.2 56.83 532.72 61.84 534.41 62.44 536.65 68.91 535.15 72.49 533.56 74.59 525.93 75.17 523.5 76.6 520.11 75.96 523.22 74.03 523.44 72.19 520.8 70.35 522.46 69.73 519.54 65.01 Z" id="28078"/>
<path d="M 363.64 310.23 364.62 304.58 369.75 301.52 373.16 300.98 379.62 303.16 386.2 300.77 388.68 301.41 400.85 299.29 405.24 296.95 401.69 292.63 402.89 291.96 408.13 293.81 406.63 297.47 419.75 295.99 439.31 301.77 441.19 304.15 449.87 306.18 457.83 305.78 462.61 302.18 467.25 293.31 477.99 286.63 477.39 281.41 480.89 276.07 483.72 274.27 485.8 274.62 489.7 276.97 493.33 277.19 499.46 288.13 503.53 291 504.4 296.08 510.24 298.73 512.04 301.02 509.61 304.66 499.87 310.68 486.64 308.67 481.4 301.24 477.83 301 474.2 302.71 459.83 308.22 466.21 312.37 470.14 323.04 476.71 331.2 472.59 335.05 478.49 336.38 482.3 343.08 483.59 342.31 489.51 345.05 495.56 345.16 505.08 343.43 511.49 348.46 515.67 348.55 527.59 342.68 536.89 343.26 536.4 347.54 537.85 349.68 543.41 352.27 543.82 355.14 545.92 356.26 547.39 363.67 549.14 364.18 552.22 365.51 549.8 369.71 551.38 372.55 547.2 374.07 548.95 376.94 533.73 381.55 525.52 382.23 525.98 383.63 523.88 384.14 525.9 388.1 523.69 392.39 527.15 395.32 531.71 394.4 544.45 396 546.88 393.93 549.44 393.78 548.95 390.97 554.84 396.26 554.6 405.6 549.99 407.01 542.92 405.06 536.18 420.23 537.38 424.45 522.11 440.02 521.42 445.5 525.43 445.97 513.89 447.45 507.13 446.27 504.62 444.47 497.04 442.89 487.24 436.29 481.65 439.24 479.6 438.58 476.28 440.68 471.53 439.97 464.33 443.27 462.69 442.14 454.12 441.47 453.14 439.09 447.63 435.45 449.76 419.48 430.5 423.8 418.66 421.4 414.79 423.05 404.77 419.01 402.89 420.42 390.53 403.52 397.71 403.24 406.17 405.64 418.06 404.53 421.66 401.29 418.11 392.26 419.29 388.77 423.57 386.13 423.62 378.44 413.56 379.32 412.09 373.3 406.19 368.53 393.26 366.77 390.4 367.78 388.38 366.04 389.17 362.19 391.05 355.53 387.78 349.49 388.95 346.08 380.9 344.05 380.3 336.4 375.45 331.05 369.77 319.08 363.94 317.26 364.56 315.8 361.86 312.14 363.64 310.23 Z" id="28079"/>
<path d="M 332.62 372.79 336.85 365.87 336.76 357.28 338.43 349.21 342.03 349.83 350.73 348.48 353.05 351.78 360.01 355.61 389.17 362.19 388.38 366.04 390.4 367.78 384.04 371.25 382.46 374.2 383.03 377.74 375.39 378.42 365.3 377.69 356.54 372.06 353.54 374.31 351.14 379.06 343.86 379.58 338.78 375.34 332.62 372.79 Z" id="28080"/>
<path d="M 643.67 332.63 636.63 316.89 640.01 312.99 641.81 313.64 644.08 310.68 645.85 311 645.44 309.67 648.14 307.85 644.62 306.42 647.81 304.6 648.58 300.96 650.46 301.17 649.78 298.54 653.76 296.42 655.34 297.42 653.98 298.26 655.04 299.57 661.43 305.2 671.06 310.25 676.73 311.22 678.15 313.1 676.57 315.09 678.64 315.91 675.94 318.52 678.67 322.52 671.33 329.57 675.15 332.57 671.44 334.37 669.58 332.14 667.29 331.86 657.72 338.05 648.99 333.13 643.67 332.63 Z" id="28083"/>
<path d="M 563.6 397.67 570.45 394.53 587.72 391.53 590.06 390.14 595.52 391.7 596.66 394.91 596.39 398.75 591.53 402.84 591.92 404.1 583.13 407.48 583.54 408.3 576.67 411.6 565.1 412.99 562.13 410.55 564.99 409.18 564.01 405.17 561.77 407.42 562.4 404.89 560.46 403.78 564.85 398.42 563.6 397.67 Z" id="28084"/>
<path d="M 393.04 185.22 394.68 184.28 392.63 182.74 392.58 176.1 404.01 167.3 409.3 166.68 410.37 167.88 413.91 167.96 416.37 172.89 422.23 178.99 427.77 180.38 436.15 186.27 436.99 188.67 442.72 189.72 448.83 193.68 441.17 201.01 439.23 204.05 441.22 208.35 437.86 209.68 455.24 229.26 443.1 228.42 443.21 225.92 439.75 220.43 428.94 212.27 414.19 208.2 413.53 206.9 404.39 205.16 400.57 199.89 400.22 194.82 394.11 189.49 393.04 185.22 Z" id="28085"/>
<path d="M 509.04 237.07 510.24 233.82 517.58 229.56 516.19 218.14 519.65 219.38 525.13 218.61 528 221.27 533.62 221.89 536.73 224.72 542.27 226.28 551.73 227.59 550.29 237.44 547.5 241.89 542.1 245.88 541.86 249.41 538.09 249.67 536.13 253.35 537.36 255.53 535.58 265.02 537.79 269.82 534.3 270.44 530.43 270.65 529.83 274.06 520.91 273.2 520.93 268.98 518.81 267.59 516.24 268.21 510.21 255.02 512.5 246.58 511.33 239.06 509.04 237.07 Z" id="28086"/>
<path d="M 238.06 231.78 240.63 225.94 246.06 221.61 253.1 219.62 264.94 230.91 269.44 232.79 270.53 235.34 272.87 236.79 277.43 236.94 274.4 238.81 271.62 244.46 263.93 245.38 262.02 243.33 260.98 244.89 254.41 240.67 252.09 242.75 246.88 242.43 242.16 238.62 238.06 231.78 Z" id="28087"/>
<path d="M 540.49 17.26 540.19 15.16 543.77 9.46 548.08 10.87 551.65 14.96 560.41 16.4 570.69 32.55 569.46 35.27 571.07 38.39 578.25 37.92 573.42 42.48 576.42 46.6 575.96 50.41 572.71 51.78 572.98 54.37 569.11 58.14 563.33 58.07 562.86 60.07 561.25 59.57 559.67 60.94 553.18 61.99 547.94 60.54 543.22 61.35 544.37 56.04 552.8 42.95 552.11 30.7 553.78 25.24 551.6 20.49 547.72 18.39 540.49 17.26 Z" id="28088"/>
<path d="M 333.41 473.68 335.51 473.25 340.01 476.51 347.89 474.24 349.75 476.62 353.81 474.71 362.68 466.34 363.99 464.07 362.71 462.57 368.11 459.89 382.51 459.98 386.91 461.17 387.81 465.8 380.49 479.36 381.45 486.77 378.97 486.12 372.88 492.59 367.78 490.71 366.53 488.78 364.29 489.32 356.02 489.04 353.95 487.88 348.44 483.06 343.42 482.12 342.44 480.6 339.03 481.35 336.79 480.06 336 475.87 333.41 473.68 Z" id="28089"/>
<path d="M 305.09 249.58 309.95 246.95 313.58 241.42 319.31 242.66 320.78 241.29 324.71 240.95 330.03 235.72 333.68 236.32 334.8 238.04 329.07 243.37 328.66 248.25 332.7 251.64 343.37 256.35 346.07 256.39 351.44 252.71 352.97 253.89 348.19 257.18 347.76 257.5 346.04 258.79 347.32 263.57 340.91 263.57 341.1 266.99 341.7 269.78 346.04 271.47 353.3 269.07 352.78 261.98 354.31 260.48 357.69 260.55 369.77 266.95 368.98 269.11 366.66 269.9 359.43 270.27 345.06 276.91 334.75 286.25 328.36 298.22 325.2 296.01 325.72 279.71 331.77 273.63 330.35 266.99 321.19 266.46 307.33 262 306.29 254.46 305.09 249.58 Z M 352.21 256.28 354.8 256.33 354.63 258.02 352.64 258.6 352.21 256.28 Z" id="28090"/>
<path d="M 566.14 497.18 562.18 485.48 565.59 481.54 563.57 479.59 563.95 477.71 565.07 476.68 569.41 479.31 574.32 476.32 580.87 477.11 586.62 475.55 595.82 475.59 605.39 477.45 611.48 478.84 617.34 485.2 620.4 496.1 615.43 501.78 606.59 505.49 605.5 507.63 603.21 505.27 589.79 504.82 590.85 501.93 585.04 499.17 577.79 499.23 568.37 496.64 566.14 497.18 Z" id="28091"/>
<path d="M 334.09 458.09 334.39 457.56 344.02 456.12 347.49 459.03 334.09 458.09 Z M 334.25 455.22 334.39 453.66 332.48 448.86 333.79 444.43 332.37 441.64 337.96 437.89 339.17 436.25 338.02 433.98 346.75 433.48 356.79 427.87 365.95 425.49 371.27 425.97 373.02 425.71 373.35 429.11 377.41 430.96 376.4 434.96 377.96 436.29 379.49 435.62 383.33 441.17 385.38 441.09 386.2 450.57 382.57 453.55 385.76 456.46 386.91 461.17 382.51 459.98 368.11 459.89 365.93 457.75 362.98 458.24 360.12 452.63 357.31 451.39 353.35 451.75 347.84 457.38 348.06 454.45 346.18 452.31 334.25 455.22 Z" id="28092"/>
<path d="M 375.39 378.42 383.03 377.74 382.46 374.2 384.04 371.25 390.4 367.78 393.26 366.77 406.19 368.53 412.09 373.3 413.56 379.32 423.62 378.44 423.57 386.13 419.29 388.77 418.11 392.26 421.66 401.29 418.06 404.53 406.17 405.64 397.71 403.24 390.53 403.52 392.25 400.89 388.62 399.9 386.28 391.68 384.29 392.26 375.39 378.42 Z" id="28115"/>
<path d="M 282.64 234.82 281.8 233.35 284.28 228.76 287.55 226.19 284.93 223.62 285.81 218.83 294.32 217.22 299.69 214.33 302.23 207.52 306.02 202.83 305.31 199.27 302.31 198.25 316.44 200.69 318.71 204.39 318.05 207.71 320.21 209.51 315.68 212.14 313.33 216.04 312.92 222.6 302.5 235.12 301.25 239.09 289.02 235.21 282.64 234.82 Z M 287.69 212.1 288.42 209.36 292 206.58 290.85 202.94 299.8 198.63 298.55 200.19 300.1 203.39 297.04 207.95 293.09 212.17 287.69 212.1 Z" id="28093"/>
<path d="M 640.53 421.21 642.36 418.98 650.43 413.42 655.75 412.5 659.57 409.8 656.73 406.84 658.02 403.99 663.47 401.14 666.99 408.83 683.55 411.66 680.71 415.09 685.3 422.26 681.42 426.69 681.07 429.61 676.02 436.65 663.09 438.79 656.52 431.83 640.53 421.21 Z" id="28116"/>
<path d="M 534.41 62.44 538.53 63.47 537.66 68.23 543.22 61.35 547.94 60.54 553.18 61.99 559.67 60.94 561.25 59.57 562.86 60.07 563.33 58.07 569.11 58.14 572.98 54.37 575.22 53.26 578.22 54.46 583.43 58.57 582.42 62.59 575.9 65.33 572.22 73.94 569.74 74.37 569.46 81.16 558.74 76.28 544.64 74.67 540.44 72.83 539.46 70 535.15 72.49 536.65 68.91 534.41 62.44 Z" id="28117"/>
<path d="M 567.45 90.84 569.46 81.16 569.74 74.37 572.22 73.94 575.9 65.33 582.42 62.59 586.92 61.57 597.18 65.42 601.25 65.93 603.89 71.18 618.9 84.2 620.45 87.57 607.98 94.23 609.05 100.33 606.24 104.83 600.15 106.05 596.99 105.06 594.34 106.6 576.28 105.13 574.73 105.68 576.23 106.58 573.45 107.16 573.2 103.95 569.74 101.94 568.92 99.02 567.45 90.84 Z" id="28118"/>
<path d="M 244.69 400.16 245.43 397.97 253.12 392.81 261.47 391.57 266.65 389.15 262.78 379.92 267.53 377.59 278 377.5 281.99 376 287.91 379.43 286.57 380.8 287.31 383.58 290.2 386.71 285.18 395.32 286.16 395.98 281.03 401.51 281.82 403.95 280.1 404.7 279.48 407.57 274.02 407.55 268.35 403.48 260.79 402.19 259.89 400.95 249.88 399.43 244.69 400.16 Z" id="28119"/>
<path d="M 459.91 192.42 459.99 179.55 471.91 175.01 475.78 174.79 485.28 174.77 484.71 185.42 481.79 189.76 459.91 192.42 Z" id="28094"/>
<path d="M 214.99 382.17 213.4 377.12 211.11 375.89 212.18 370.48 214.3 367.95 219.13 366.43 220.52 360.9 223.85 356.71 224.12 352.72 229.96 345.91 234.6 339.4 236.92 337.45 240.06 344.97 238.12 346.53 241.94 349.92 241.97 354.24 243.93 353.88 243.9 355.51 246.96 356.28 245.62 359.08 249.5 360.82 248.73 364.18 253.81 366.41 253.53 370.65 256.15 375.98 262.78 379.92 266.65 389.15 261.47 391.57 253.12 392.81 245.43 397.97 244.69 400.16 245.59 406.69 240.77 412.88 238.64 412.86 232.36 417.23 226.96 419.91 227.21 417.96 218.07 403.99 220.5 398.92 221.97 398.7 222.68 394.61 219.76 393.09 221.12 390.07 217.96 388.42 219.19 386.52 214.99 382.17 Z" id="28095"/>
<path d="M 261.74 471.03 257.95 462.27 259.07 457.77 257.92 454.41 264.09 438.22 267.15 435.41 289.98 436.37 300.48 433.16 302.26 436.44 319.2 442.97 326.13 451.19 334.39 453.66 334.25 455.22 334.39 457.56 334.09 458.09 333.52 463.36 330.49 467.86 330.95 473.34 333.41 473.68 336 475.87 336.79 480.06 329.04 479.21 331.85 493.19 323.67 490.52 320.42 487.3 318.35 479.87 316.63 478.82 301.98 476.53 291.23 480.43 276.56 479.1 265.7 471.82 261.74 471.03 Z" id="28096"/>
<path d="M 315.24 198.89 314.29 192.61 321.41 184.92 323.62 180.04 321.84 172.44 331.47 159.37 333.95 145.8 331.64 145.82 328.74 143.33 336.71 131.81 336.25 125.79 344.7 124.38 347.1 117.53 350 116.71 349.56 114.29 352.34 111.1 356.82 109.26 365.35 121.08 371.22 122.62 385.9 135.11 386.71 140.7 388.95 142.07 390.29 147.32 388.16 151.47 391.98 154.96 395.72 161.77 398.23 160.64 399.67 162.87 403.36 163.02 409.3 166.68 404.01 167.3 392.58 176.1 392.63 182.74 394.68 184.28 393.04 185.22 388.43 185.91 376.05 184.45 367.02 189.53 363.74 188.33 346.07 192.4 339.77 192.03 335.89 194.39 324.68 194.99 323.12 196.75 315.24 198.89 Z" id="28120"/>
<path d="M 423.52 81.31 426.22 76.84 431.65 73.11 435.25 68.83 454.42 73.79 454.97 76.21 471.47 91.87 455.35 96.58 452.98 98.62 446.81 98.36 440.46 100.82 436.77 94.44 431.67 90.95 429.24 85.59 423.52 81.31 Z" id="28097"/>
<path d="M 134.37 391.89 148.69 387.91 160.64 386.69 166.51 388.83 167.05 392.94 171.47 398.7 174.97 403.65 180.64 404.98 184.79 407.63 179.55 420.06 182.3 425.39 182.71 435.92 180.18 439.91 176.38 437.38 174.31 438.39 172.87 434.98 167.68 433.68 162.09 429.39 156.63 427.34 155.68 424.15 149.54 422.33 147.69 419.37 144.49 418.47 148.5 413.99 143.89 410.12 145.64 401.17 137.24 401.04 135 398.15 135.93 396.07 132.95 394.33 134.37 391.89 Z" id="28099"/>
<path d="M 548.95 390.97 545.95 389.22 545.38 385.87 551.38 384.05 548.95 376.94 547.2 374.07 551.38 372.55 549.8 369.71 552.22 365.51 549.14 364.18 558.63 365.53 565.51 363.92 567.5 364.27 566.33 364.84 570.64 372.87 570.34 379.71 574.51 385.49 578.9 383.28 582.5 383.48 582.78 382.08 590.63 379.6 592.87 377.24 599.64 373.09 603.51 373.65 607.68 375.12 605.58 379.28 610.82 382.7 609.95 385.06 611.31 387.99 603.35 388.25 597.64 384.55 600.84 393.35 596.66 394.91 595.52 391.7 590.06 390.14 587.72 391.53 570.45 394.53 563.6 397.67 560.16 397.93 559.18 395.68 554.84 396.26 548.95 390.97 Z" id="28130"/>
<path d="M 215.97 271.83 235.15 268 241.45 269.18 245.62 268.53 254.24 270.63 267.23 270.85 274.29 268.58 286.76 275.94 286.62 281.13 278.71 281.71 274.29 277.31 253.18 281.79 246.99 290.29 243.96 289.76 242.38 294.13 234.79 297.66 235.45 298.52 230.18 302.2 228 307.34 230.15 311.35 220.14 316.38 218.04 316.21 216.35 311.95 213.19 309.57 210.27 310.27 204.02 315.2 199.87 313.79 202.74 304.83 218.31 289.63 224.29 287.62 220.52 286.33 219.51 284.62 213.43 281 215.97 271.83 Z" id="28131"/>
<path d="M 490.13 490.54 493.98 483.49 495.97 474.95 500.96 471.35 515.67 467.24 515.1 461.45 517.22 462.22 525.68 459.98 527.86 460.49 538.86 455.29 542.18 457 541.64 458.54 544.26 458.86 552.47 456.1 554.9 456.74 563.22 465.91 570.5 470.47 574.32 476.32 569.41 479.31 565.07 476.68 563.95 477.71 563.57 479.59 565.59 481.54 562.18 485.48 566.14 497.18 560.65 499.27 552.31 507.24 546.79 508.83 541.48 507.69 535.34 509.83 534.16 511.46 517.39 507.95 515.4 504.65 510.32 504.01 503.8 499.94 500.06 495.48 490.13 490.54 Z" id="28132"/>
<path d="M 144.49 418.47 147.69 419.37 149.54 422.33 155.68 424.15 156.63 427.34 162.09 429.39 167.68 433.68 172.87 434.98 174.31 438.39 176.38 437.38 180.18 439.91 172.67 440.79 163.89 436.78 158.87 439.05 154.23 438.39 149.51 441.94 134.56 440.38 125.86 443.31 121.71 446.27 122.23 447.34 117.46 449.25 107.64 446.29 105.02 444.17 84.94 436.87 72.39 439.01 66.5 436.46 62.57 432.95 63.5 431.3 72.15 428.92 74.44 426.18 73.07 422.73 74.14 421.55 72.75 420.98 73.84 412.2 71.76 408.98 75.07 406.86 77.6 402.41 82.6 400.59 83.17 398.3 86.82 396.33 92.99 395.64 112.6 397.87 115.77 395.53 124.2 395.25 131.1 397.12 135.93 396.07 135 398.15 137.24 401.04 145.64 401.17 143.89 410.12 148.5 413.99 144.49 418.47 Z M 144.49 418.47 134.92 417.14 128.67 413.95 122.32 420.98 123.05 425.2 128.15 429.39 134.92 430.74 144.49 418.47 Z" id="28133"/>
<path d="M 474.2 302.71 477.83 301 481.4 301.24 486.64 308.67 499.87 310.68 509.61 304.66 512.04 301.02 510.24 298.73 504.4 296.08 503.53 291 499.46 288.13 508.68 280.72 510.57 280.83 511.08 283.83 521.04 282.58 523.5 284.57 523.28 286.65 526.83 286.95 526.88 291.3 524.78 292.95 526.85 297.38 531.41 297.7 531.63 301.13 533.35 301.22 534.6 304.34 539.67 303.66 544.53 306.14 544.89 311.22 542.24 312.69 536.86 309.74 531.38 311.54 534.82 314.41 533.26 317.88 530.89 319.06 531.08 321.2 535.5 325.22 535.2 327.3 538.97 327.09 540.36 329.74 537.49 332.31 499.27 328.11 491.61 320.85 484.65 320.34 474.2 302.71 Z" id="28134"/>
<path d="M 151.78 282.35 155.43 281.68 155.21 280.51 162.03 281.71 164.41 291.21 166.7 294.19 175.46 295.6 191.74 294.04 211.38 288.43 219.51 284.62 220.52 286.33 224.29 287.62 218.31 289.63 202.74 304.83 199.87 313.79 204.02 315.2 210.27 310.27 213.19 309.57 216.35 311.95 211.38 312.44 200.88 318.33 192.13 320.36 189.34 326.66 182.52 332.61 176.79 333.4 173.68 332.33 169.29 333.7 166.92 332.91 161.87 327.51 167.87 327.28 169.81 324.07 168.5 324.73 163.13 322.82 162.69 316.98 152.57 315.61 154.59 305.95 156.77 302.71 155.57 299.18 158.13 295.24 152.13 292.86 151.78 282.35 Z M 136.72 271.96 134.32 266.52 137.67 264.57 138.46 261.98 152.19 254.76 156.58 254.83 163.97 257.89 171.04 264.53 169.92 269.99 153.39 269.2 136.72 271.96 Z" id="28135"/>
<path d="M 681.04 404.4 684.83 402.34 692.33 405.11 712 399.88 709.9 403.74 707.04 405.19 707.83 409.07 704.39 423.25 702.95 424.23 700.55 423.44 696.62 426.87 681.07 429.61 681.42 426.69 685.3 422.26 680.71 415.09 683.55 411.66 681.04 404.4 Z" id="28100"/>
<path d="M 704.39 423.25 707.83 409.07 721.14 406.09 729.71 412.15 730.66 414.79 734.26 414.98 734.05 422.35 723.92 426.33 719.75 430.74 704.39 423.25 Z" id="28101"/>
<path d="M 605.39 477.45 613.58 476.14 619.77 480.75 623.59 479.83 629.24 473.81 633.38 471.88 644.51 467.45 652.1 472.46 650.57 477.34 651.61 485.08 664.56 496.36 666.31 501.14 664.84 504.54 670.89 510.99 659.19 517.54 643.23 507.01 633.25 506.41 625.42 499.79 624.33 497.09 620.4 496.1 617.34 485.2 611.48 478.84 605.39 477.45 Z" id="28110"/>
<path d="M 707.83 409.07 707.04 405.19 709.9 403.74 712 399.88 714.16 396.56 714.35 387.74 716.29 383.48 722.83 379.36 733.99 380.97 736.42 382.51 738.3 381.16 745.37 380.84 749.65 391.21 752.41 394.96 758.43 398.77 755.9 406.65 751.72 407.98 754.4 414.25 748.23 415.54 747.88 413.89 742.75 412.62 734.26 414.98 730.66 414.79 729.71 412.15 721.14 406.09 707.83 409.07 Z" id="28111"/>
<path d="M 366.15 101.94 367.07 100.67 369.69 100.91 371.79 102.84 377.38 98.62 383.58 98.49 385.13 96.97 391.16 104.85 391.02 109.92 393.97 115.62 415.17 133.07 416.15 133.89 414.32 136.63 409.14 139.33 406.52 144.51 403.82 146.16 403.87 144.17 393.29 133.46 392.96 130.18 387.23 126.46 386.31 122.77 379.46 114.57 366.15 101.94 Z" id="28112"/>
<path d="M 439.09 478.03 440.13 468.97 445.83 468.13 454.7 471.05 463.59 469.96 474.47 465.89 480.67 460.13 488.77 457.51 493 458.09 494.42 462.33 501.18 469.53 500.96 471.35 495.97 474.95 493.98 483.49 490.13 490.54 480.37 494.99 473 495.68 464.74 500.17 460.67 506.62 443.18 500.26 440.37 497.69 442.01 478.29 439.09 478.03 Z" id="28113"/>
<path d="M 503.53 80.93 508.63 75.64 506.53 74.78 504.13 65.55 501.26 62.02 503.88 58.35 502.87 53.06 504.57 51.18 505.77 49.51 503.69 46.66 507.16 46.27 508.22 47.79 509.34 58.07 519.54 65.01 522.46 69.73 520.8 70.35 523.44 72.19 523.22 74.03 520.11 75.96 523.5 76.6 525.93 75.17 527.07 79.83 523.03 85 523.2 92.43 517.55 88.81 513.21 88.59 508.79 83.05 503.53 80.93 Z" id="28114"/>
<path d="M 504.26 170.81 510.51 170.23 515.26 177 519.73 174.56 523.5 175.8 524.75 180.75 527.23 181.37 524.51 191.03 526.58 197.07 515.12 197.02 516.21 191.73 511.3 190.66 506.01 187.17 505.79 182.95 508.63 180.73 503.66 173.59 504.26 170.81 Z" id="28121"/>
<path d="M 574.32 260.07 579.64 260.87 582.89 259.6 583.05 255.49 586.05 253.95 581.69 249.86 588.07 250.91 592 253.71 592.54 256.37 595.35 256.05 595.74 258.06 598.76 257.48 603.56 259.05 604.16 253.82 607.55 254.89 609.54 259.35 615.05 260.48 617.59 249.07 621 248.53 624.98 252.88 631.72 256.28 632.02 260.74 637.26 268.77 635.65 270.31 631.58 271.83 631.72 274.34 628.5 276.37 627.84 279.71 626.86 280.96 606.95 272.9 599.75 272.86 599.91 270.23 598.6 269.9 598.05 271.36 596.28 269.56 592.05 269.03 592.71 267.7 589.92 265.04 583.68 264.06 583.19 262.13 575.63 262.75 574.32 260.07 Z" id="28122"/>
<path d="M 525.43 445.97 521.42 445.5 522.11 440.02 537.38 424.45 536.18 420.23 542.92 405.06 549.99 407.01 554.6 405.6 554.84 396.26 559.18 395.68 560.16 397.93 563.6 397.67 564.85 398.42 560.46 403.78 562.4 404.89 561.77 407.42 564.01 405.17 564.99 409.18 562.13 410.55 565.1 412.99 558.99 416.65 561.77 422.45 564.04 423.18 567.15 420.46 573.39 421.62 573.45 427.21 577.08 427.62 580.1 433.83 580.59 443.55 576.45 443.55 572.85 441.06 568.13 445.48 559.26 444.06 557.68 446.85 562.51 448.95 557.32 451.24 560.54 453.08 554.9 456.74 552.47 456.1 544.26 458.86 541.64 458.54 542.18 457 538.86 455.29 527.86 460.49 528.63 457.98 525.73 453.29 525.43 445.97 Z" id="28123"/>
<path d="M 532.61 110.63 536.65 112.75 542.98 113.44 542.4 111.36 544.42 108.87 551.57 106.2 560.27 106.2 565.35 100.52 568.92 99.02 569.74 101.94 573.2 103.95 573.45 107.16 567.42 117.16 566.93 124.62 563.9 127.19 554.73 122.86 546.96 121.81 543.71 125.6 542.98 123.61 541.07 124.96 539.24 128.92 537.49 121.83 532.69 117.08 533.02 114.1 531.03 111.94 532.61 110.63 Z" id="28124"/>
<path d="M 126.43 384.78 150.17 377.59 153.22 355.14 154.7 354.8 153.2 353.24 156.88 352.14 157.04 350.52 155.08 350.43 155.65 347.69 160.15 348.05 158.95 346.04 165.61 342.23 162.42 340.43 163.24 339.36 165.53 340 164.68 338.2 166.92 332.91 169.29 333.7 173.68 332.33 176.79 333.4 182.52 332.61 189.34 326.66 192.13 320.36 200.88 318.33 193.05 334.45 193.84 342.89 197.66 342.85 198.67 337.82 212.01 333.4 223.31 332.68 225.22 337.43 230.59 337.58 234.6 339.4 229.96 345.91 225.27 343.96 210.92 344.78 201.62 349.81 195.07 349.96 190.9 365.23 191.55 369.98 189.64 371.33 191.66 376.45 189.34 380.88 185.2 379.49 180.39 384.05 179 390.22 171.47 398.7 167.05 392.94 166.51 388.83 160.64 386.69 148.69 387.91 134.37 391.89 134.65 389.19 130.64 389.69 128.15 387.05 125.42 386.6 126.43 384.78 Z" id="28125"/>
<path d="M 489.42 24.28 495.45 21.67 495.84 16.42 505.79 9.78 515.61 8.22 517.36 16.85 513.62 18.48 514.22 22.33 517.93 22.18 518.31 25.07 521.97 24.49 527.4 25.74 530.73 28.16 519.51 36.02 513.08 37.45 507.21 34.26 504.7 30.66 496.65 24.84 489.42 24.28 Z" id="28126"/>
<path d="M 332.4 322.33 333.82 324.13 336.9 323.85 338.02 321.9 339.68 322.5 339.3 317.79 340.75 318.93 345.69 319.03 351.47 315.35 353.32 316.01 358.37 313.81 363.64 310.23 361.86 312.14 364.56 315.8 363.94 317.26 369.77 319.08 375.45 331.05 380.3 336.4 380.9 344.05 388.95 346.08 387.78 349.49 391.05 355.53 389.17 362.19 360.01 355.61 353.05 351.78 350.73 348.48 342.03 349.83 338.43 349.21 337.45 344.43 335.16 344.75 336.52 343.11 334.04 341.22 335.37 333.34 330.05 328.41 332.4 322.33 Z" id="28127"/>
<path d="M 13.03 471.45 13.36 465.86 27 457.34 22.77 448.37 21.41 439.18 19.14 438 18.19 431.9 21.92 432.58 28.33 430.29 28.14 433.89 31.36 435.18 35.54 442.69 39.79 445.73 43.5 445.41 46.99 443.03 56.73 443.16 60.03 444.68 58.56 446.55 59.79 449.22 54.74 451.79 54.17 454.47 38.97 462.8 45.28 464.99 39.71 463.98 33.52 469.1 13.03 471.45 Z" id="28128"/>
<path d="M 472.65 232.43 481.19 230.97 502.19 234.89 504.02 236.3 502.79 240.76 509.04 237.07 511.33 239.06 512.5 246.58 510.21 255.02 516.24 268.21 517.28 271.19 507.54 270.29 496.11 276.44 492.62 276.48 487.08 273.74 486.26 271.28 492.4 261.68 491.72 259.82 487.16 257.85 486.51 255.32 490.6 251.76 490.95 249.49 489.7 246.99 484.68 247.61 479.22 244.16 473.27 243.2 471.67 241.81 471.01 239.81 474.34 235.38 472.65 232.43 Z" id="28129"/>
<path d="M 691.63 357.56 708.92 346.73 721.47 349.81 724.58 360.37 722.04 367.18 722.83 379.36 716.29 383.48 703.71 378.27 703.85 375.79 698.77 374.33 696.62 371.87 691.63 357.56 Z" id="28136"/>
<path d="M 670.46 352.1 666.17 349.75 665.57 343.21 666.75 342.08 669.15 343.41 673.48 340.3 677.55 340.36 678.09 335.97 676.1 335.91 677.88 334.35 675.15 332.57 678.01 330.79 682.62 331.58 683.82 330.13 694.52 327.45 696.04 325.99 699.51 329.76 705.84 332.59 705.7 328.44 710.18 335.59 722.15 341.61 721.47 349.81 708.92 346.73 691.63 357.56 683.8 356.38 678.15 352.25 670.46 352.1 Z" id="28137"/>
<path d="M 493.49 72.53 500.91 61.37 500.04 53.75 498.26 51.71 499.65 50.66 504.57 51.18 502.87 53.06 503.88 58.35 501.26 62.02 504.13 65.55 506.53 74.78 508.63 75.64 503.53 80.93 502.98 76.69 500.36 74.84 497.88 76.73 494.91 76.79 495.4 73.28 493.49 72.53 Z" id="28138"/>
<path d="M 329.51 507.88 330.68 503.54 335.89 504.37 330.16 511.76 329.51 507.88 Z M 342.52 505.59 350.7 504.97 358.07 507.58 359.22 500.32 354.39 493.73 356.49 491.78 353.95 487.88 356.02 489.04 364.29 489.32 373.1 501.76 374.19 504.07 372.26 505.49 368.49 510.65 367.73 511.97 349.97 511.22 342.52 505.59 Z" id="28140"/>
<path d="M 505.79 9.78 512.94 6.48 517.55 6.85 518.56 4.83 522 3.31 529.09 4.32 534.93 1.75 542.29 1 544.48 1.43 546.06 3.76 543.77 9.46 540.19 15.16 540.49 17.26 539.32 22.76 535.45 26.49 531.6 27.94 530.73 28.16 527.4 25.74 521.97 24.49 518.31 25.07 517.93 22.18 514.22 22.33 513.62 18.48 517.36 16.85 515.61 8.22 505.79 9.78 Z" id="28143"/>
<path d="M 264.99 431.3 263.79 423.29 266.79 422.41 266.68 420.89 273.12 414.51 277.73 412.45 279.91 413.31 282.5 411.34 285.42 412.77 300.02 420.27 301.05 422.73 302.66 423.33 302.04 425.05 304.82 431.04 300.48 433.16 289.98 436.37 267.15 435.41 269.14 432.28 264.99 431.3 Z" id="28141"/>
<path d="M 408.35 518.91 410.56 511.87 412.9 511.33 413.45 508.55 415.82 509.49 416.97 505.1 419.81 504.46 418.91 501.09 426.57 502.47 429.74 502.25 431.18 500.41 437.18 505.57 440.16 503.41 441.38 500.2 443.18 500.26 460.67 506.62 455.98 517.03 460.83 524.14 461 526.88 453.44 533.99 451.2 534.1 449.05 533.37 445.91 534.87 437.48 541.49 423.32 537.55 420.13 534.16 419.4 528.91 408.35 518.91 Z" id="28150"/>
<path d="M 510.51 170.23 513.38 168.35 528.14 165.65 536.59 161.69 540.87 162.91 544.34 159.33 546.17 159.63 554.19 168.99 558.96 171.99 559.13 180.43 562.18 183.87 559.26 185.5 557.76 190.34 564.09 193.56 563.03 197.92 560.41 197.24 559.21 198.31 548.4 198.59 547.86 197.62 537.87 197.67 535.09 196.49 526.58 197.07 524.51 191.03 527.23 181.37 524.75 180.75 523.5 175.8 519.73 174.56 515.26 177 510.51 170.23 Z" id="28151"/>
<path d="M 328.36 298.22 346.31 300.25 364.62 304.58 363.64 310.23 358.37 313.81 353.32 316.01 351.47 315.35 345.69 319.03 340.75 318.93 339.3 317.79 339.68 322.5 338.02 321.9 336.9 323.85 333.82 324.13 332.4 322.33 331.14 318.11 329.59 317.77 328.23 319.25 325.77 315.54 324.95 308.99 329.32 299.25 328.36 298.22 Z" id="28152"/>
<path d="M 546.17 159.63 552.31 152.5 554.98 159.74 557.38 161.34 557.62 164.9 561.12 168.11 565.86 165.24 572.14 165.71 576.45 163.44 580.76 165.16 577.65 165.5 581.06 169.78 576.2 172.46 577.29 179.48 574.29 182.44 574.29 184.69 569.9 187.92 569.6 192.98 567.91 194.07 565.51 192.89 564.09 193.56 557.76 190.34 559.26 185.5 562.18 183.87 559.13 180.43 558.96 171.99 554.19 168.99 546.17 159.63 Z" id="28153"/>
<path d="M 388.43 185.91 393.04 185.22 394.11 189.49 400.22 194.82 400.57 199.89 404.39 205.16 413.53 206.9 414.19 208.2 428.94 212.27 439.75 220.43 443.21 225.92 443.1 228.42 434.43 231.98 425.34 238.14 423.35 242.13 417.35 242.21 414.05 239.64 408.1 238.74 400.57 224.09 398.8 224.44 392.58 195.91 389.88 192.25 388.43 185.91 Z" id="28144"/>
<path d="M 542.27 226.28 546.28 223.3 544.45 220.93 547.8 218.91 543.06 216.79 544.28 214.41 548.32 212.34 552.2 212.44 560.65 201.67 559.21 198.31 566.25 198.16 564.58 202.76 561.69 203.09 564.36 209.21 567.12 210.84 571.35 209.3 570.75 210.52 573.2 211.52 571.46 214.61 575.49 220.09 581.14 221.37 583.98 219.81 584.3 221.57 589.49 221.91 590.74 224.65 592.05 227.37 593.77 232.75 597.37 226.28 599.58 227.91 598.11 232.62 590.36 238.38 588.21 242.53 586.16 242.66 584.93 248.19 581.8 248.27 581.69 249.86 578.22 247.85 580.92 241.06 566.63 237.24 563.16 234.48 555.58 231.91 551.73 227.59 542.27 226.28 Z" id="28145"/>
<path d="M 652.1 472.46 658.89 474.52 677.71 473.47 678.04 479.36 680.63 481.16 681.15 488.37 685.3 498.31 670.89 510.99 664.84 504.54 666.31 501.14 664.56 496.36 651.61 485.08 650.57 477.34 652.1 472.46 Z" id="28146"/>
<path d="M 521.45 543.41 521.92 540.01 526.42 537.14 525.87 533.99 530.78 532.23 532.85 521.16 540.49 522.34 542.32 524.95 541.2 528.29 542.48 530.59 546.66 532.71 538.64 536.26 536.02 539.32 535.15 545.13 526.01 547.01 524.02 544.87 524.7 542.54 521.45 543.41 Z" id="28147"/>
<path d="M 685.3 498.31 689.2 499.53 702.4 499.02 704.53 496.02 707.64 495.63 711.54 492.31 713.2 486.23 725.02 480.92 730.94 483.34 733.42 487.09 736.04 488.18 741.74 489.74 747.8 494.09 743.87 495.95 741.66 500.24 743.62 505.19 746.92 507.11 744.33 513.39 748.5 519.43 748.4 526.15 743.73 529.28 736.47 529.45 732.63 527.42 730.94 528.57 723.32 528.96 719.51 528.87 712.47 524.91 712.36 519.47 709.79 513.99 702.51 516.47 697.93 515.23 692.2 511.4 685.84 505.61 685.3 498.31 Z" id="28155"/>
<path d="M 565.51 363.92 577.57 355.48 575.9 351.99 582.15 352.74 589.92 347.8 599.2 344.52 602.42 343.45 602.5 353.49 601.19 354.5 603.95 363.75 599.75 366.66 601.27 369.3 592.87 377.24 590.63 379.6 582.78 382.08 582.5 383.48 578.9 383.28 574.51 385.49 570.34 379.71 570.64 372.87 566.33 364.84 567.5 364.27 565.51 363.92 Z" id="28148"/>
<path d="M 397.35 503.34 406.63 495.59 408.51 494.07 413.45 494.39 412.82 496.98 418.41 499.42 418.91 501.09 419.81 504.46 416.97 505.1 415.82 509.49 413.45 508.55 412.9 511.33 410.56 511.87 408.35 518.91 405.16 517.99 406.3 511.89 403.79 511.65 404.34 508.63 401.86 508.42 401.17 504.14 397.35 503.34 Z" id="28149"/>
<path d="M 603.51 373.65 605.07 372.08 607.22 372.92 610.19 372.02 612.98 373.52 614.34 374.97 623.45 377.2 644.4 388.98 649.1 390.46 653.38 389.11 656.11 397.46 663.47 401.14 658.02 403.99 656.73 406.84 659.57 409.8 655.75 412.5 650.43 413.42 642.36 418.98 632.48 414.59 617.53 397.5 611.31 387.99 609.95 385.06 610.82 382.7 605.58 379.28 607.68 375.12 603.51 373.65 Z" id="28154"/>
<path d="M 463.81 150.25 470.6 147.64 473.57 144.1 479.82 145.54 486.59 150.59 490.57 165.2 486.15 170.23 485.28 174.77 475.78 174.79 470.96 167.02 471.83 162.07 470.52 161.82 468.8 155.82 463.81 150.25 Z" id="28158"/>
<path d="M 126.43 384.78 125.75 381.61 130.61 379.94 128.59 378.68 131.1 377.93 130.09 375.96 135.14 375.64 136.64 374.29 136.39 372.36 133.55 371.89 133.61 370.24 137.18 370.95 136.42 368.85 138.71 367.58 134.45 360.9 135.14 348.33 134.24 345.72 132.63 345.42 135.71 339.96 136.42 333.68 136.17 332.4 132.19 331.61 134.37 328.05 134.21 323.75 141.06 319.4 152.57 315.61 162.69 316.98 163.13 322.82 168.5 324.73 169.81 324.07 167.87 327.28 161.87 327.51 166.92 332.91 164.68 338.2 165.53 340 163.24 339.36 162.42 340.43 165.61 342.23 158.95 346.04 160.15 348.05 155.65 347.69 155.08 350.43 157.04 350.52 156.88 352.14 153.2 353.24 154.7 354.8 153.22 355.14 150.17 377.59 126.43 384.78 Z" id="28159"/>
<path d="M 236.92 337.45 235.01 334.48 238.61 328.84 243.03 326.51 247.86 326.57 252.61 319.63 258.17 318.22 262.56 313.87 272.25 311.39 275.25 312.61 279.07 312.22 275.85 329.93 283.62 330.56 285.04 333.38 289.02 334.84 289.87 339.59 291.59 340.39 294.59 347.09 293.8 351.31 296.99 353.71 300.78 354.2 300.43 355.78 303.21 356.68 304.19 359.45 307.93 362.36 307.33 363.47 296.09 364.46 288.7 370.6 283 370.56 281.14 372.13 281.99 376 278 377.5 267.53 377.59 262.78 379.92 256.15 375.98 253.53 370.65 253.81 366.41 248.73 364.18 249.5 360.82 245.62 359.08 246.96 356.28 243.9 355.51 243.93 353.88 241.97 354.24 241.94 349.92 238.12 346.53 240.06 344.97 236.92 337.45 Z" id="28160"/>
<path d="M 451.2 534.1 453.44 533.99 461 526.88 460.83 524.14 455.98 517.03 460.67 506.62 464.74 500.17 473 495.68 480.37 494.99 490.13 490.54 500.06 495.48 503.8 499.94 510.32 504.01 515.4 504.65 517.39 507.95 511.33 526.22 508.68 526.99 504.32 522.7 493.87 517.44 489.48 518.38 488.63 519.28 492.04 521.76 494.44 521.68 493.22 524.2 485.17 529.17 481.7 535.32 477.78 535.68 472.24 537.85 469.18 541.46 458.3 538.77 451.2 534.1 Z" id="28161"/>
<path d="M 570.15 283.78 571.57 266.67 575.11 263.29 574.27 261.34 574.32 260.07 575.63 262.75 583.19 262.13 583.68 264.06 589.92 265.04 592.71 267.7 592.05 269.03 596.28 269.56 598.05 271.36 598.6 269.9 599.91 270.23 599.75 272.86 606.95 272.9 600.54 282.26 597.4 283.33 595.52 287.7 589.35 293.08 577.89 294.4 575.96 289.54 571.57 286.25 572.66 283.31 570.15 283.78 Z" id="28162"/>
<path d="M 626.86 292.61 626.13 291.69 631.36 288.54 629.51 287.57 632.35 283.42 634.17 279.86 636.55 280.36 636.57 276.8 631.12 275.84 632.05 278.26 627.84 279.71 628.5 276.37 631.72 274.34 631.58 271.83 635.65 270.31 635.16 271.77 646.26 275.09 645.36 276.97 649.5 277.89 650.24 275.45 652.97 276.24 658.13 273.97 661.21 268.02 662.57 270.87 657.99 275.64 657.47 281.36 649.7 283.35 655.1 286.31 658.53 290.76 656.46 291.15 653.41 294.83 653.76 296.42 649.78 298.54 632.18 292.76 630.14 293.72 626.86 292.61 Z" id="28156"/>
<path d="M 605.5 507.63 606.59 505.49 615.43 501.78 620.4 496.1 624.33 497.09 625.42 499.79 633.25 506.41 643.23 507.01 659.19 517.54 649.1 531.78 629.21 540.74 625.36 539.86 614.86 515.08 608.48 511.29 605.5 507.63 Z" id="28157"/>
<path d="M 592.05 227.37 595.65 224.87 597.37 226.28 593.77 232.75 592.05 227.37 Z M 566.25 198.16 586.68 202.08 591.4 207.13 594.67 216 592.98 222.96 590.74 224.65 589.49 221.91 584.3 221.57 583.98 219.81 581.14 221.37 575.49 220.09 571.46 214.61 573.2 211.52 570.75 210.52 571.35 209.3 567.12 210.84 564.36 209.21 561.69 203.09 564.58 202.76 566.25 198.16 Z" id="28163"/>
<path d="M 535.58 265.02 537.36 255.53 536.13 253.35 538.09 249.67 541.86 249.41 542.1 245.88 547.5 241.89 550.29 237.44 551.73 227.59 555.58 231.91 563.16 234.48 566.63 237.24 580.92 241.06 578.22 247.85 581.69 249.86 586.05 253.95 583.05 255.49 582.89 259.6 579.64 260.87 574.32 260.07 574.27 261.34 569.96 260.01 556.48 259.35 552.06 260.07 544.2 264.89 541.04 263.93 539.97 265.3 535.58 265.02 Z" id="28164"/>
<path d="M 565.1 412.99 576.67 411.6 583.54 408.3 583.13 407.48 586.35 411.81 590.61 423.55 589.57 431.13 580.1 433.83 577.08 427.62 573.45 427.21 573.39 421.62 567.15 420.46 564.04 423.18 561.77 422.45 558.99 416.65 565.1 412.99 Z" id="28167"/>
<path d="M 507.62 199.68 515.12 197.02 526.58 197.07 535.09 196.49 537.87 197.67 547.86 197.62 548.4 198.59 559.21 198.31 560.65 201.67 552.2 212.44 548.32 212.34 544.28 214.41 543.06 216.79 547.8 218.91 544.45 220.93 546.28 223.3 542.27 226.28 536.73 224.72 533.62 221.89 528 221.27 525.13 218.61 519.65 219.38 516.19 218.14 510.65 204.65 508.49 202.94 507.62 199.68 Z" id="28168"/>
<path d="M 539.43 557.31 553.56 539.3 560.54 537.89 570.06 537.42 573.83 538.57 582.2 541.7 585.18 545.94 590.42 547.14 590.85 548.81 588.89 548.83 587.28 551.19 584.52 558.53 571.54 565.67 563.74 566.24 539.43 557.31 Z" id="28170"/>
<path d="M 117.46 449.25 122.23 447.34 121.71 446.27 125.86 443.31 134.56 440.38 149.51 441.94 156.82 447.3 157.29 449.7 161.9 454.49 170.25 460.4 182.74 465.95 181.1 467.36 175.1 467.26 172.95 468.43 162.72 487.28 153.91 491.46 149.43 496.17 143.48 494.52 141.87 492.23 143.89 489.23 142.78 488.33 141.08 488.01 135.68 492.29 129.24 485.95 125.12 484.88 121.58 486.81 123.22 477.92 116.4 465.95 117.46 449.25 Z" id="28171"/>
<path d="M 612.98 373.52 622.88 370.22 625.47 374.59 628.74 372.64 631.25 373.41 634.39 372.38 639.47 376 643.15 374.97 643.75 373.09 646.15 374.12 648.11 371.78 652.42 371.74 654.85 366.86 657.5 366.13 658.62 363.84 676.29 374.55 683.82 375.85 686.61 378.46 686.88 380.93 684.4 382.34 682.46 388.64 676.16 391.98 670.95 388.49 659.79 389.86 654.52 387.89 653.38 389.11 649.1 390.46 644.4 388.98 623.45 377.2 614.34 374.97 612.98 373.52 Z" id="28172"/>
<path d="M 676.95 583.25 677.41 575.97 680.58 569.18 683.06 557.12 689.93 552.71 691.33 552.41 698.69 557.63 707.09 565.37 711.38 574.27 718.39 571.45 721.58 565.88 724.72 565.17 728.07 567.49 727.8 570.16 718.22 577.23 721.77 578.24 721.03 579.2 717.41 577.79 699.29 582.69 698.25 579.52 696.29 581.38 692.72 580.87 691.95 584.28 688.27 580.76 687.1 583.03 683.6 582.03 682.84 585.88 678.64 584.98 676.95 583.25 Z" id="28173"/>
<path d="M 213.59 459.98 216.19 460.06 216.4 458.71 216.81 449.16 215.07 444.13 217.74 438.67 225.68 439.61 229.04 441.88 234.9 440.74 239.43 442.41 250.01 435 253.7 435.8 259.29 431.28 264.99 431.3 269.14 432.28 267.15 435.41 264.09 438.22 257.92 454.41 259.07 457.77 257.95 462.27 261.74 471.03 258.22 477.67 249.28 484.18 245.65 482.87 240.68 483.21 235.06 480.43 227.59 482.42 225 480.3 228.52 472.27 221.37 469.01 217.8 469.12 213.59 462.74 213.59 459.98 Z" id="28174"/>
<path d="M 205.52 433.95 208.25 433.7 208.44 428.77 209.34 426.93 224.62 424.49 224.64 421.13 226.96 419.91 232.36 417.23 241.56 420.33 241.64 424.08 244.67 425.52 246.19 430.48 250.01 435 239.43 442.41 234.9 440.74 229.04 441.88 225.68 439.61 217.74 438.67 215.07 444.13 208.57 438.62 205.52 433.95 Z" id="28175"/>
<path d="M 281.99 376 281.14 372.13 283 370.56 288.7 370.6 296.09 364.46 307.33 363.47 313.93 369.43 316.09 373.47 325.01 365.16 330.38 364.59 333.74 357.18 336.76 357.28 336.85 365.87 332.62 372.79 330.3 375.17 328.61 381.53 328.64 387.65 331.66 390.31 330.46 394.27 331.55 397.25 328.96 397.44 319.8 392.58 315.87 388.04 314.42 382.49 311.23 384.87 309.89 384.05 305.99 385.3 295.87 382.77 290.2 386.71 287.31 383.58 286.57 380.8 287.91 379.43 281.99 376 Z" id="28176"/>
<path d="M 303.21 356.68 306.07 348.33 311.86 340.47 321.35 339.27 329.73 343.9 335.16 344.75 337.45 344.43 338.43 349.21 336.76 357.28 333.74 357.18 330.38 364.59 325.01 365.16 316.09 373.47 313.93 369.43 307.33 363.47 307.93 362.36 304.19 359.45 303.21 356.68 Z" id="28177"/>
<path d="M 232.36 417.23 238.64 412.86 240.77 412.88 245.59 406.69 244.69 400.16 249.88 399.43 259.89 400.95 260.79 402.19 268.35 403.48 274.02 407.55 279.48 407.57 285.42 412.77 282.5 411.34 279.91 413.31 277.73 412.45 273.12 414.51 266.68 420.89 266.79 422.41 263.79 423.29 264.99 431.3 259.29 431.28 253.7 435.8 250.01 435 246.19 430.48 244.67 425.52 241.64 424.08 241.56 420.33 232.36 417.23 Z" id="28178"/>
<path d="M 676.02 436.65 681.07 429.61 696.62 426.87 700.55 423.44 702.95 424.23 704.39 423.25 719.75 430.74 722.56 434.17 722.18 437.49 718.69 444.43 713.64 447.02 708.57 446.12 694.84 451.92 676.02 436.65 Z" id="28179"/>
<path d="M 644.51 559.39 664.67 542.04 671.6 541.98 667.84 531.87 659.19 517.54 670.89 510.99 685.3 498.31 685.84 505.61 692.2 511.4 697.93 515.23 702.51 516.47 709.79 513.99 712.36 519.47 712.47 524.91 719.51 528.87 723.32 528.96 719.78 550.27 721.58 565.88 718.39 571.45 711.38 574.27 707.09 565.37 698.69 557.63 691.33 552.41 689.93 552.71 683.06 557.12 680.58 569.18 677.41 575.97 676.95 583.25 668.55 582.73 664.21 575.41 655.34 569.24 646.29 568.73 643.75 563.2 644.51 559.39 Z" id="28180"/>
<path d="M 300.48 433.16 304.82 431.04 302.04 425.05 302.66 423.33 301.05 422.73 313.82 417.19 317.72 418.13 323.42 416.84 329.64 418.3 331.42 417.29 333.11 413.99 329.48 407.01 332.37 403.65 331.55 397.25 330.46 394.27 336.14 393.65 344.84 397.76 350.57 398.34 360.61 402.62 362.84 404.36 362.82 407.16 373.05 413.12 373.67 414.98 367.65 415.45 367.02 417.19 371.49 423.18 371.27 425.97 365.95 425.49 356.79 427.87 346.75 433.48 338.02 433.98 339.17 436.25 337.96 437.89 332.37 441.64 333.79 444.43 332.48 448.86 334.39 453.66 326.13 451.19 319.2 442.97 302.26 436.44 300.48 433.16 Z" id="28181"/>
<path d="M 431.65 73.11 440.27 61.72 439.53 59.66 449.46 53.73 455.35 57.22 461.74 66.73 467.25 72.51 469.32 72.34 474.64 76.36 477.91 81.78 484.62 83.92 481.05 85.96 486.01 89.24 484.24 90.41 478.68 90.18 473.98 92.64 472.92 91.23 471.47 91.87 454.97 76.21 454.42 73.79 435.25 68.83 431.65 73.11 Z" id="28182"/>
<path d="M 200.88 318.33 211.38 312.44 216.35 311.95 218.04 316.21 220.14 316.38 224.62 319.03 225.27 328.31 227.83 330.49 228.08 332.16 223.31 332.68 212.01 333.4 198.67 337.82 197.66 342.85 193.84 342.89 193.05 334.45 200.88 318.33 Z" id="28183"/>
<path d="M 473.57 144.1 480.23 127.51 484.35 125.3 488.14 119.88 489.7 111.92 497.58 107.83 506.17 118.28 516.19 114.42 521.23 114.34 527.7 119.13 528.76 122.82 525.24 130.16 529.55 134.72 529.36 137.79 511.63 142.93 513.29 145.95 503.01 149.42 486.59 150.59 479.82 145.54 473.57 144.1 Z" id="28901"/>
<path d="M 497.58 107.83 500.45 103.22 509.72 101.61 514.28 96.32 520.82 96.92 523.2 92.43 523.03 85 527.07 79.83 525.93 75.17 533.56 74.59 535.15 72.49 539.46 70 540.44 72.83 544.64 74.67 558.74 76.28 569.46 81.16 567.45 90.84 559.59 91.72 557.24 90.91 556.48 93.11 552.41 93.24 552.28 94.63 539.16 99.22 534.71 102.09 532.69 101.89 531.68 104.33 535.56 109.5 532.61 110.63 531.03 111.94 533.02 114.1 532.69 117.08 537.49 121.83 539.24 128.92 543.33 129.05 544.64 130.59 544.61 133.37 541.01 134.4 541.88 137.64 529.36 137.79 529.55 134.72 525.24 130.16 528.76 122.82 527.7 119.13 521.23 114.34 516.19 114.42 506.17 118.28 497.58 107.83 Z" id="28902"/>
<path d="M 402.89 291.96 403.76 290.61 411.13 289.52 417.54 285.52 416.26 287.08 422.72 288.45 423.87 291.32 426.16 290.01 438 292.18 440.35 290.98 438.68 282.11 441.63 280.61 445.42 280.91 445.64 278.02 450.14 276.71 451.37 273.16 456.22 274.51 460.62 278.11 465.5 278.54 468.23 280.78 473.06 278.99 477.39 281.41 477.99 286.63 467.25 293.31 462.61 302.18 457.83 305.78 449.87 306.18 441.19 304.15 439.31 301.77 419.75 295.99 406.63 297.47 408.13 293.81 402.89 291.96 Z" id="28903"/>
<path d="M 287.69 212.08 293.09 212.14 297.02 207.95 300.1 203.39 298.55 200.19 299.8 198.61 305.28 199.27 306.02 202.83 302.26 207.52 299.69 214.33 294.32 217.2 285.81 218.83 284.93 223.62 287.58 226.17 284.25 228.79 281.8 233.37 282.67 234.82 277.4 236.94 272.87 236.79 270.5 235.34 269.44 232.81 264.94 230.91 253.1 219.62 254.76 214.22 253.48 210.47 261.42 204.54 263.68 198.1 267.17 195.48 279.23 197.45 281.74 200.79 292.65 202.14 290.85 202.94 292 206.58 288.42 209.36 287.69 212.08 Z" id="28038"/>
<path d="M 343.39 256.35 343.2 255.11 349.29 251.1 353.16 246.24 360.44 242.23 359.63 237.05 352.48 224.39 345.09 221.97 328.99 211.37 322.03 208.93 320.21 209.51 318.05 207.71 318.71 204.37 316.44 200.69 314.42 200.39 315.24 198.91 323.12 196.75 324.71 194.99 335.89 194.39 339.77 192.03 346.07 192.4 363.72 188.35 367.02 189.53 376.08 184.45 388.46 185.91 389.88 192.25 392.58 195.91 398.8 224.42 400.57 224.09 408.1 238.74 405.27 238.94 400.65 242.64 392.66 254.68 387.97 251.53 375.91 251.81 372.97 254.16 360.77 255.47 356.6 253.39 354.91 255.41 351.41 252.71 346.07 256.41 343.39 256.35 Z M 329.32 233.11 335.86 230.39 338.59 231.23 336.85 236.56 334.8 238.04 333.65 236.32 330.03 235.72 329.32 233.11 Z" id="28082"/>
</g>
</svg>